<svg width="352" height="349" viewBox="0 0 352 349" fill="none" xmlns="http://www.w3.org/2000/svg">
<path d="M325.363 69.5905C327.317 68.7636 328.975 67.4058 330.133 65.6853C331.29 63.9647 331.895 61.9568 331.874 59.9101C331.874 54.1286 327.328 49.4262 321.671 49.4026C316.015 49.379 311.41 54.0419 311.386 59.8234C311.346 61.887 311.944 63.9158 313.106 65.654C314.268 67.3921 315.941 68.7619 317.914 69.5905C302.153 71.8669 302.868 88.2819 302.868 88.2819L340.137 88.4473C340.137 88.4473 340.992 71.8511 325.363 69.5905Z" fill="#F5F5F5"/>
<path d="M105.146 8.25476L80.7858 0L56.6636 8.14449C53.5887 9.51503 50.9084 10.3342 50.9084 13.0438V26.5208C50.8782 35.9862 53.6337 45.2681 58.8587 53.3015C64.1178 61.4898 71.8631 67.9427 81.0571 71.7959C90.923 68.7713 98.2731 60.7213 102.779 53.8292C107.997 45.7936 110.75 36.5127 110.721 27.0485V14.9263C110.688 11.0667 108.517 9.18421 105.146 8.25476Z" fill="#F5F5F5"/>
<path d="M88.851 30.0102C88.8569 28.8075 88.5121 27.6271 87.8555 26.602C87.1989 25.5769 86.2566 24.7478 85.1347 24.2081C84.0128 23.6684 82.7559 23.4395 81.5056 23.5473C80.2552 23.655 79.0611 24.095 78.0578 24.8178C77.0544 25.5406 76.2816 26.5175 75.8264 27.6384C75.3712 28.7592 75.2518 29.9796 75.4815 31.162C75.7112 32.3444 76.2809 33.4419 77.1266 34.3308C77.9722 35.2197 79.0601 35.8648 80.2677 36.1934V45.8581H83.951V36.1934C85.359 35.8144 86.5994 35.0054 87.4838 33.8894C88.3682 32.7734 88.8483 31.4114 88.851 30.0102Z" fill="#EBEBEB"/>
<path d="M312.265 133.155L316.417 135.313L314.551 138.307L310.358 135.944L310.44 140.362H306.855V135.904L302.704 138.283L300.87 135.29L305.022 133.132L300.87 130.942L302.704 127.949L306.888 130.406V125.948H310.473L310.391 130.406L314.584 127.996L316.45 130.989L312.265 133.155Z" fill="#E0E0E0"/>
<path d="M329.564 133.155L333.715 135.314L331.849 138.307L327.656 135.944L327.738 140.362H324.154L324.195 135.904L320.002 138.315L318.168 135.321L322.32 133.163L318.168 130.973L320.002 127.98L324.195 130.391L324.154 125.932H327.738L327.656 130.391L331.849 127.98L333.715 130.973L329.564 133.155Z" fill="#E0E0E0"/>
<path d="M346.862 133.155L351.022 135.313L349.156 138.307L344.963 135.944L345.037 140.362H341.452L341.493 135.904L337.3 138.314L335.467 135.321L339.627 133.163L335.5 130.965L337.333 127.972L341.526 130.383L341.485 125.924H345.07L344.996 130.383L349.189 127.972L351.055 130.965L346.862 133.155Z" fill="#E0E0E0"/>
<path d="M170.854 321.699V346.164H208.196H249.386V321.699H170.854Z" fill="#F5F5F5"/>
<path d="M167.557 314.855V321.699H252.132V314.855H208.196H167.557Z" fill="#EBEBEB"/>
<path d="M209.841 346.164H249.387V321.699H252.133V314.855H208.196V321.061L209.841 346.164Z" fill="#EBEBEB"/>
<path d="M197.763 325.638H181.838V329.324H197.763V325.638Z" fill="#E0E0E0"/>
<path d="M200.238 333.932H179.782V341.706H200.238V333.932Z" fill="white"/>
<path d="M182.932 290.421V314.886H220.282H261.473V290.421H182.932Z" fill="#F5F5F5"/>
<path d="M179.634 283.576V290.421H264.218V283.576H220.281H179.634Z" fill="#EBEBEB"/>
<path d="M221.926 314.886H261.472V290.421H264.218V283.576H220.282V289.791L221.926 314.886Z" fill="#EBEBEB"/>
<path d="M209.84 294.367H193.915V298.054H209.84V294.367Z" fill="#E0E0E0"/>
<path d="M212.323 302.653H191.868V310.428H212.323V302.653Z" fill="white"/>
<path d="M352 346.353C352 346.464 273.196 346.558 176.008 346.558C78.8206 346.558 0 346.464 0 346.353C0 346.243 78.7877 346.149 176.008 346.149C273.229 346.149 352 346.227 352 346.353Z" fill="#131517"/>
<path d="M298.329 170.357H175.811C172.914 170.357 170.565 172.607 170.565 175.382V236.143C170.565 238.918 172.914 241.168 175.811 241.168H298.329C301.226 241.168 303.575 238.918 303.575 236.143V175.382C303.575 172.607 301.226 170.357 298.329 170.357Z" fill="white"/>
<path d="M298.338 241.168C298.338 241.168 298.691 241.168 299.365 241.05C300.365 240.843 301.281 240.364 302.004 239.672C302.532 239.162 302.938 238.549 303.197 237.876C303.344 237.487 303.444 237.082 303.493 236.671C303.493 236.245 303.493 235.788 303.493 235.316C303.493 233.425 303.493 231.244 303.493 228.794C303.493 218.972 303.451 204.778 303.427 187.237C303.427 185.039 303.427 182.794 303.427 180.502V177.02C303.427 175.847 303.55 174.657 303.049 173.571C302.703 172.747 302.128 172.031 301.388 171.497C300.647 170.964 299.769 170.635 298.847 170.546C298.239 170.506 297.565 170.546 296.923 170.546H288.99H254.607H175.827C174.988 170.544 174.162 170.744 173.424 171.126C172.686 171.509 172.059 172.062 171.601 172.736C171.135 173.403 170.852 174.172 170.779 174.973C170.738 175.76 170.779 176.627 170.779 177.446V206.574C170.779 212.875 170.779 219.071 170.779 225.163V234.174C170.779 234.914 170.779 235.662 170.779 236.387C170.817 237.096 171.013 237.789 171.355 238.419C171.705 239.038 172.191 239.577 172.778 240C173.365 240.422 174.041 240.719 174.759 240.869C175.49 240.981 176.231 241.018 176.97 240.979H209.092H239.052L282.429 241.042L294.219 241.082L282.429 241.121L239.052 241.184H209.092H176.97C176.203 241.222 175.434 241.183 174.676 241.066C173.901 240.906 173.172 240.586 172.539 240.129C171.906 239.672 171.384 239.089 171.01 238.419C170.632 237.743 170.416 236.995 170.376 236.23C170.376 235.442 170.376 234.749 170.376 234C170.376 231.031 170.376 228.022 170.376 224.989V206.574C170.376 200.272 170.376 193.853 170.376 187.315V177.469C170.376 176.635 170.376 175.831 170.376 174.965C170.438 174.103 170.72 173.27 171.199 172.539C171.698 171.811 172.376 171.211 173.172 170.79C173.977 170.38 174.874 170.161 175.786 170.152H254.566H288.949H296.882C297.54 170.152 298.165 170.152 298.839 170.152C299.498 170.218 300.139 170.4 300.73 170.688C301.904 171.258 302.823 172.214 303.32 173.381C303.56 173.953 303.689 174.562 303.698 175.177C303.698 175.768 303.698 176.359 303.698 176.95V180.431C303.698 182.721 303.698 184.965 303.698 187.166C303.698 204.707 303.641 218.901 303.624 228.723C303.624 231.173 303.624 233.355 303.624 235.245C303.624 235.718 303.624 236.166 303.624 236.608C303.572 237.028 303.467 237.44 303.312 237.836C303.046 238.521 302.628 239.142 302.087 239.656C301.346 240.353 300.409 240.827 299.39 241.019C299.135 241.064 298.877 241.091 298.617 241.097L298.338 241.168Z" fill="#131517"/>
<path d="M216.911 195.381V196.263H213.063V191.537H216.813V192.419H214.206V193.42H216.508V194.278H214.206V195.381H216.911Z" fill="#131517"/>
<path d="M222.386 191.506V196.232H221.441L218.974 193.341V196.232H217.84V191.506H218.752L221.219 194.396V191.506H222.386Z" fill="#131517"/>
<path d="M224.598 192.404H223.003V191.506H227.336V192.404H225.741V196.263H224.598V192.404Z" fill="#131517"/>
<path d="M231.8 195.381V196.263H227.952V191.537H231.709V192.419H229.095V193.42H231.405V194.278H229.095V195.381H231.8Z" fill="#131517"/>
<path d="M235.887 196.263L234.925 194.94H233.872V196.263H232.729V191.537H234.884C236.207 191.537 237.038 192.191 237.038 193.262C237.048 193.583 236.955 193.898 236.773 194.167C236.591 194.436 236.328 194.645 236.018 194.767L237.128 196.295L235.887 196.263ZM234.81 192.404H233.872V194.058H234.81C235.508 194.058 235.862 193.751 235.862 193.231C235.862 192.711 235.508 192.404 234.81 192.404Z" fill="#131517"/>
<path d="M239.635 193.884C239.667 193.371 239.856 192.878 240.178 192.467C240.5 192.056 240.942 191.744 241.447 191.572C241.953 191.399 242.5 191.372 243.021 191.495C243.542 191.617 244.014 191.884 244.379 192.262L243.639 192.916C243.485 192.741 243.294 192.601 243.078 192.504C242.862 192.408 242.627 192.357 242.389 192.356C241.987 192.384 241.611 192.557 241.336 192.84C241.061 193.122 240.908 193.494 240.908 193.881C240.908 194.267 241.061 194.639 241.336 194.922C241.611 195.204 241.987 195.377 242.389 195.405C242.628 195.408 242.865 195.36 243.081 195.263C243.297 195.166 243.488 195.023 243.639 194.845L244.379 195.499C244.017 195.88 243.545 196.15 243.023 196.276C242.502 196.401 241.953 196.376 241.446 196.203C240.94 196.031 240.497 195.718 240.175 195.306C239.853 194.893 239.665 194.399 239.635 193.884Z" fill="#131517"/>
<path d="M244.741 193.885C244.711 193.363 244.846 192.846 245.126 192.399C245.407 191.952 245.822 191.595 246.316 191.376C246.81 191.157 247.362 191.085 247.9 191.17C248.437 191.255 248.936 191.492 249.331 191.851C249.726 192.21 250 192.675 250.116 193.185C250.233 193.694 250.187 194.226 249.985 194.71C249.783 195.195 249.434 195.61 248.982 195.903C248.531 196.195 247.999 196.351 247.454 196.35C247.104 196.369 246.754 196.32 246.425 196.205C246.096 196.089 245.795 195.911 245.541 195.68C245.286 195.449 245.084 195.17 244.947 194.861C244.809 194.553 244.739 194.22 244.741 193.885ZM249.008 193.885C249.001 193.592 248.905 193.307 248.73 193.066C248.556 192.826 248.311 192.64 248.026 192.532C247.742 192.424 247.43 192.399 247.131 192.46C246.832 192.521 246.558 192.665 246.344 192.874C246.13 193.084 245.985 193.349 245.928 193.637C245.871 193.925 245.903 194.223 246.022 194.493C246.14 194.763 246.339 194.994 246.594 195.156C246.849 195.318 247.148 195.405 247.454 195.405C247.662 195.409 247.869 195.373 248.062 195.298C248.255 195.222 248.429 195.11 248.575 194.967C248.721 194.825 248.834 194.655 248.909 194.469C248.983 194.283 249.017 194.084 249.008 193.885Z" fill="#131517"/>
<path d="M251.047 191.506H253.283C253.937 191.506 254.564 191.755 255.027 192.198C255.49 192.641 255.749 193.242 255.749 193.869C255.749 194.495 255.49 195.096 255.027 195.54C254.564 195.983 253.937 196.232 253.283 196.232H251.03L251.047 191.506ZM253.242 195.357C253.65 195.357 254.041 195.202 254.329 194.926C254.617 194.65 254.779 194.275 254.779 193.884C254.779 193.494 254.617 193.119 254.329 192.843C254.041 192.567 253.65 192.411 253.242 192.411H252.198V195.357H253.242Z" fill="#131517"/>
<path d="M260.756 195.381V196.263H256.909V191.537H260.682V192.419H258.051V193.42H260.362V194.278H258.051V195.381H260.756Z" fill="#131517"/>
<path d="M198.051 203.864H185.973C184.18 203.864 182.726 205.257 182.726 206.976V224.989C182.726 226.708 184.18 228.101 185.973 228.101H198.051C199.844 228.101 201.298 226.708 201.298 224.989V206.976C201.298 205.257 199.844 203.864 198.051 203.864Z" fill="#EBEBEB"/>
<path d="M221.244 203.864H209.166C207.372 203.864 205.918 205.257 205.918 206.976V224.989C205.918 226.708 207.372 228.101 209.166 228.101H221.244C223.037 228.101 224.491 226.708 224.491 224.989V206.976C224.491 205.257 223.037 203.864 221.244 203.864Z" fill="#EBEBEB"/>
<path d="M244.437 203.864H232.359C230.566 203.864 229.112 205.257 229.112 206.976V224.989C229.112 226.708 230.566 228.101 232.359 228.101H244.437C246.23 228.101 247.684 226.708 247.684 224.989V206.976C247.684 205.257 246.23 203.864 244.437 203.864Z" fill="#EBEBEB"/>
<path d="M267.622 203.864H255.544C253.751 203.864 252.297 205.257 252.297 206.976V224.989C252.297 226.708 253.751 228.101 255.544 228.101H267.622C269.416 228.101 270.87 226.708 270.87 224.989V206.976C270.87 205.257 269.416 203.864 267.622 203.864Z" fill="#EBEBEB"/>
<path d="M290.815 203.864H278.737C276.944 203.864 275.49 205.257 275.49 206.976V224.989C275.49 226.708 276.944 228.101 278.737 228.101H290.815C292.608 228.101 294.062 226.708 294.062 224.989V206.976C294.062 205.257 292.608 203.864 290.815 203.864Z" fill="#EBEBEB"/>
<path d="M196.061 217.838C196.061 219.563 194.663 220.689 192.772 220.689C190.174 220.689 188.801 218.901 188.801 215.963C188.801 212.765 190.585 211.111 193.192 211.111C193.972 211.077 194.747 211.246 195.436 211.599L195.14 212.151C194.544 211.837 193.87 211.688 193.192 211.717C190.98 211.717 189.525 213.112 189.525 215.86C189.525 216.24 189.552 216.619 189.607 216.995C189.838 216.386 190.271 215.866 190.84 215.515C191.408 215.163 192.081 215 192.756 215.049C194.729 215.049 196.061 216.152 196.061 217.838ZM195.337 217.838C195.337 216.491 194.326 215.608 192.657 215.608C192.32 215.572 191.979 215.603 191.655 215.7C191.331 215.796 191.031 215.955 190.774 216.167C190.517 216.379 190.308 216.64 190.161 216.933C190.014 217.226 189.932 217.544 189.919 217.869C189.919 218.98 190.89 220.082 192.739 220.082C193.068 220.117 193.4 220.084 193.715 219.987C194.029 219.89 194.318 219.73 194.564 219.518C194.809 219.306 195.005 219.047 195.138 218.757C195.271 218.467 195.339 218.154 195.337 217.838Z" fill="#1DA7FF"/>
<path d="M218.999 218.019H216.927V220.642H216.22V218.019H210.588V217.522L215.948 211.182H216.771L211.509 217.412H216.253V215.104H216.943V217.412H219.015L218.999 218.019Z" fill="#1DA7FF"/>
<path d="M242.916 221.988C240.053 222.262 237.17 222.262 234.308 221.988C237.17 221.715 240.053 221.715 242.916 221.988Z" fill="#1DA7FF"/>
<path d="M179.009 179.36C180.122 179.36 181.024 178.496 181.024 177.43C181.024 176.364 180.122 175.5 179.009 175.5C177.897 175.5 176.995 176.364 176.995 177.43C176.995 178.496 177.897 179.36 179.009 179.36Z" fill="#131517"/>
<path d="M186.828 177.43C186.828 177.812 186.71 178.185 186.488 178.502C186.267 178.82 185.953 179.067 185.584 179.213C185.216 179.359 184.811 179.397 184.421 179.323C184.03 179.248 183.671 179.064 183.389 178.795C183.108 178.525 182.916 178.181 182.838 177.807C182.76 177.432 182.8 177.044 182.953 176.692C183.105 176.339 183.363 176.038 183.695 175.825C184.026 175.613 184.415 175.5 184.814 175.5C185.348 175.5 185.86 175.704 186.238 176.065C186.616 176.427 186.828 176.918 186.828 177.43Z" fill="#131517"/>
<path d="M190.511 179.36C191.624 179.36 192.526 178.496 192.526 177.43C192.526 176.364 191.624 175.5 190.511 175.5C189.399 175.5 188.497 176.364 188.497 177.43C188.497 178.496 189.399 179.36 190.511 179.36Z" fill="#131517"/>
<path d="M303.781 182.865C303.781 182.975 273.994 183.07 237.268 183.07C200.542 183.07 170.755 182.975 170.755 182.865C170.755 182.755 200.525 182.66 237.268 182.66C274.01 182.66 303.781 182.747 303.781 182.865Z" fill="#131517"/>
<path d="M279.354 14.8475H132.483C129.505 14.8475 127.09 17.1609 127.09 20.0146V149.468C127.09 152.322 129.505 154.635 132.483 154.635H279.354C282.333 154.635 284.747 152.322 284.747 149.468V20.0146C284.747 17.1609 282.333 14.8475 279.354 14.8475Z" fill="white"/>
<path d="M279.354 154.635H279.741C280.122 154.605 280.5 154.536 280.867 154.43C281.584 154.22 282.247 153.868 282.813 153.397C283.38 152.927 283.837 152.347 284.156 151.697C284.598 150.721 284.774 149.653 284.665 148.594C284.665 147.42 284.665 146.128 284.665 144.734C284.665 141.946 284.665 138.724 284.665 135.101C284.665 120.608 284.624 99.6558 284.591 73.7257C284.591 60.7686 284.591 46.5827 284.591 31.3413C284.591 27.5395 284.591 23.672 284.591 19.739C284.53 18.7774 284.178 17.8535 283.58 17.0791C282.982 16.3046 282.162 15.7129 281.22 15.3753C280.241 15.0785 279.21 14.9714 278.187 15.0602H248.844H132.5C131.265 15.0671 130.073 15.4942 129.137 16.2653C128.17 17.0478 127.538 18.1442 127.361 19.3451C127.305 19.9474 127.285 20.5523 127.304 21.1568V69.6535C127.304 88.2976 127.304 106.28 127.304 123.412C127.304 131.982 127.304 140.328 127.304 148.452C127.304 148.956 127.304 149.476 127.304 149.956C127.351 150.44 127.47 150.915 127.657 151.366C128.038 152.271 128.686 153.048 129.524 153.603C130.352 154.157 131.333 154.464 132.344 154.485H147.562H191.802L255.865 154.556H273.278L255.865 154.596L191.802 154.659H147.562H132.335C131.249 154.632 130.195 154.302 129.302 153.709C128.409 153.115 127.718 152.285 127.312 151.319C127.11 150.835 126.98 150.325 126.925 149.807C126.884 149.271 126.925 148.783 126.925 148.271C126.925 140.147 126.925 131.8 126.925 123.231C126.925 106.099 126.925 88.1164 126.925 69.4723C126.925 60.1463 126.925 50.6654 126.925 41.0296V21.1174C126.903 20.4944 126.925 19.8707 126.991 19.2506C127.172 17.9696 127.839 16.7973 128.866 15.9582C129.874 15.1139 131.161 14.6394 132.5 14.6191H248.844H278.137C279.206 14.5308 280.282 14.6486 281.303 14.9657C282.311 15.3272 283.188 15.9607 283.829 16.7896C284.469 17.6185 284.845 18.6073 284.912 19.6366C284.912 23.5749 284.912 27.4502 284.912 31.2625C284.912 46.5039 284.912 60.6898 284.912 73.647C284.912 99.5612 284.863 120.529 284.846 135.022C284.846 138.645 284.846 141.867 284.846 144.655C284.846 146.049 284.846 147.341 284.846 148.515C284.951 149.592 284.764 150.677 284.304 151.665C283.891 152.494 283.255 153.201 282.462 153.715C281.668 154.229 280.746 154.53 279.79 154.588L279.354 154.635Z" fill="#131517"/>
<path d="M139.003 24.5359C139.003 25.0534 138.843 25.5593 138.542 25.9895C138.242 26.4198 137.815 26.7549 137.316 26.9526C136.817 27.1503 136.268 27.2016 135.738 27.1001C135.208 26.9986 134.722 26.7487 134.341 26.3822C133.959 26.0157 133.7 25.549 133.595 25.0412C133.491 24.5334 133.546 24.0074 133.754 23.5297C133.962 23.052 134.313 22.6441 134.763 22.3577C135.213 22.0713 135.742 21.9193 136.282 21.9208C136.64 21.9208 136.994 21.9885 137.325 22.12C137.656 22.2515 137.956 22.4443 138.209 22.6872C138.462 22.9302 138.662 23.2185 138.798 23.5357C138.935 23.853 139.004 24.1928 139.003 24.5359Z" fill="#131517"/>
<path d="M144.224 27.1431C145.727 27.1431 146.946 25.9758 146.946 24.5359C146.946 23.096 145.727 21.9287 144.224 21.9287C142.721 21.9287 141.503 23.096 141.503 24.5359C141.503 25.9758 142.721 27.1431 144.224 27.1431Z" fill="#131517"/>
<path d="M152.182 27.1431C153.685 27.1431 154.904 25.9758 154.904 24.5359C154.904 23.096 153.685 21.9287 152.182 21.9287C150.679 21.9287 149.461 23.096 149.461 24.5359C149.461 25.9758 150.679 27.1431 152.182 27.1431Z" fill="#131517"/>
<path d="M284.747 31.9478C284.747 32.0659 249.452 32.1526 205.919 32.1526C162.385 32.1526 127.09 32.0659 127.09 31.9478C127.09 31.8296 162.377 31.743 205.919 31.743C249.46 31.743 284.747 31.8296 284.747 31.9478Z" fill="#131517"/>
<path d="M228.191 84.6035C228.191 84.6035 228.249 84.5168 228.38 84.3593L228.487 84.2254L228.594 84.0442C228.685 83.8977 228.765 83.745 228.832 83.5874C228.832 83.5007 228.915 83.4062 228.947 83.3038L229.046 82.973C229.082 82.8515 229.11 82.7278 229.128 82.6028C229.128 82.4689 229.178 82.335 229.186 82.1932C229.24 81.5381 229.206 80.8791 229.087 80.2319C228.741 78.4606 228.109 76.7518 227.213 75.1672C226.057 73.0523 224.706 71.0409 223.176 69.1573C221.334 66.8664 219.326 64.7028 217.166 62.6827C214.693 60.3574 212.053 58.2018 209.265 56.2317C207.793 55.1919 206.239 54.1837 204.603 53.2385C202.935 52.2622 201.202 51.3913 199.415 50.6313C197.579 49.8283 195.646 49.2462 193.66 48.8985C192.645 48.7253 191.608 48.7014 190.585 48.8276C190.072 48.8974 189.571 49.0353 189.097 49.2372C188.633 49.4558 188.212 49.7518 187.856 50.1115C187.516 50.4887 187.254 50.9244 187.083 51.3954C186.928 51.8703 186.843 52.3632 186.828 52.8604C186.815 53.8491 186.956 54.8342 187.247 55.7827C187.837 57.6383 188.666 59.4164 189.714 61.0758C190.702 62.6901 191.801 64.2399 193.003 65.7152C194.17 67.1645 195.395 68.535 196.637 69.8189C198.998 72.249 201.537 74.5154 204.233 76.6008C206.573 78.4286 209.046 80.0948 211.633 81.5867C213.761 82.8264 216.001 83.8808 218.325 84.7374C220.073 85.4054 221.916 85.8144 223.793 85.9504C224.475 85.9827 225.16 85.9377 225.831 85.8165C225.979 85.8165 226.111 85.7456 226.243 85.7141C226.371 85.6818 226.497 85.6423 226.621 85.5959L226.95 85.462L227.237 85.3202C227.394 85.2387 227.543 85.1438 227.681 85.0367L227.854 84.9185L227.986 84.8004C228.134 84.6586 228.216 84.5956 228.216 84.5956L227.994 84.8083L227.862 84.9264L227.698 85.0524C227.557 85.1612 227.406 85.2562 227.246 85.336L226.974 85.5093L226.637 85.6432C226.517 85.6919 226.394 85.7314 226.267 85.7613C226.13 85.8064 225.99 85.8432 225.848 85.8716C225.172 86.0042 224.481 86.0519 223.793 86.0134C221.911 85.8909 220.061 85.4897 218.309 84.824C215.976 83.9684 213.728 82.9139 211.592 81.6733C209.005 80.1811 206.532 78.5149 204.192 76.6874C201.488 74.6046 198.944 72.3382 196.579 69.9056C195.338 68.6217 194.112 67.2511 192.937 65.8018C191.738 64.3191 190.639 62.7642 189.648 61.1467C188.598 59.4796 187.77 57.6936 187.182 55.83C186.882 54.8694 186.738 53.8706 186.754 52.8683C186.771 52.363 186.86 51.8623 187.017 51.3796C187.204 50.8914 187.483 50.4402 187.839 50.0485C188.204 49.6742 188.639 49.3695 189.122 49.1505C189.607 48.9435 190.118 48.8004 190.643 48.7252C191.679 48.5989 192.73 48.6227 193.759 48.7961C195.759 49.1467 197.706 49.7341 199.555 50.5447C201.346 51.3056 203.081 52.1792 204.751 53.1598C206.396 54.105 207.949 55.1132 209.421 56.1608C212.214 58.1344 214.854 60.2982 217.322 62.6354C219.487 64.659 221.498 66.828 223.34 69.1258C224.866 71.0147 226.212 73.0314 227.361 75.1515C228.255 76.7445 228.884 78.4612 229.227 80.2398C229.342 80.8928 229.369 81.5571 229.309 82.2168C229.297 82.352 229.275 82.4862 229.243 82.6185C229.23 82.7445 229.203 82.8686 229.161 82.9888L229.063 83.3274C229.028 83.4244 228.987 83.5191 228.939 83.611C228.877 83.7726 228.795 83.9261 228.693 84.0679C228.664 84.1317 228.628 84.1924 228.586 84.249L228.479 84.3829L228.191 84.6035Z" fill="#1DA7FF"/>
<path d="M235.648 67.3378V67.0385V66.873C235.648 66.81 235.648 66.747 235.607 66.6682C235.579 66.4986 235.532 66.3323 235.467 66.172C235.467 66.0854 235.402 65.983 235.36 65.8885L235.196 65.5734C235.143 65.4592 235.077 65.3509 234.999 65.2504C234.928 65.1322 234.848 65.019 234.76 64.9117C234.351 64.3852 233.87 63.9137 233.33 63.5097C231.834 62.4097 230.17 61.5382 228.397 60.9261C226.067 60.0821 223.662 59.4415 221.211 59.0121C218.228 58.4756 215.208 58.1439 212.176 58.0197C208.713 57.858 205.243 57.9291 201.792 58.2323C199.975 58.3977 198.117 58.6419 196.234 58.9806C194.311 59.3129 192.413 59.7682 190.553 60.3433C188.619 60.9042 186.768 61.6982 185.044 62.7063C184.166 63.2227 183.375 63.8656 182.701 64.6124C182.368 64.9912 182.091 65.4127 181.879 65.8648C181.676 66.324 181.564 66.8156 181.55 67.3141C181.566 67.8117 181.675 68.3024 181.871 68.7634C182.086 69.2139 182.362 69.6351 182.693 70.0158C183.372 70.7632 184.165 71.4085 185.044 71.9299C186.771 72.9333 188.621 73.7271 190.553 74.2929C192.415 74.8606 194.312 75.3157 196.234 75.6555C198.117 75.9942 199.975 76.2305 201.792 76.3959C205.243 76.7054 208.713 76.7791 212.176 76.6165C215.209 76.5003 218.231 76.1845 221.219 75.6713C223.67 75.2419 226.075 74.6013 228.405 73.7573C230.176 73.1389 231.839 72.2679 233.338 71.1737C233.876 70.7677 234.357 70.2964 234.769 69.7717C234.856 69.6617 234.936 69.5459 235.007 69.4251C235.085 69.3246 235.151 69.2164 235.204 69.1021L235.369 68.795C235.41 68.6926 235.443 68.598 235.476 68.5035C235.541 68.3435 235.588 68.1771 235.615 68.0073C235.615 67.9364 235.615 67.8734 235.656 67.8104V67.645V67.3378C235.656 67.3378 235.656 67.4402 235.656 67.645V67.8104C235.656 67.8734 235.656 67.9364 235.656 68.0152C235.631 68.1846 235.587 68.3509 235.525 68.5114C235.525 68.6059 235.459 68.7004 235.418 68.8028L235.262 69.1179C235.204 69.2322 235.138 69.3427 235.064 69.4487C234.992 69.5658 234.912 69.6789 234.826 69.7874C234.417 70.3191 233.936 70.796 233.396 71.2052C231.902 72.3144 230.238 73.194 228.463 73.8124C226.131 74.6659 223.723 75.3144 221.269 75.7501C218.282 76.2884 215.26 76.6253 212.225 76.7583C208.76 76.9265 205.287 76.858 201.833 76.5535C200.008 76.3881 198.141 76.1518 196.259 75.8131C194.332 75.4724 192.429 75.0173 190.561 74.4504C188.62 73.8879 186.762 73.094 185.028 72.0874C184.138 71.5636 183.337 70.9129 182.652 70.1576C182.318 69.7672 182.042 69.3353 181.83 68.8737C181.608 68.4035 181.493 67.8933 181.493 67.3772C181.493 66.861 181.608 66.3508 181.83 65.8806C182.045 65.4205 182.321 64.989 182.652 64.5967C183.344 63.8423 184.15 63.1918 185.044 62.6669C186.782 61.6616 188.643 60.8679 190.586 60.3039C192.448 59.7297 194.349 59.2745 196.275 58.9412C198.166 58.6025 200.024 58.3662 201.849 58.2008C205.281 57.881 208.731 57.7941 212.176 57.9409C215.212 58.0724 218.234 58.412 221.219 58.957C223.674 59.3886 226.082 60.0346 228.413 60.8868C230.189 61.5052 231.853 62.3848 233.346 63.4939C233.885 63.9052 234.366 64.3818 234.777 64.9117C234.865 65.0217 234.944 65.1375 235.015 65.2583C235.09 65.3633 235.156 65.474 235.212 65.5891L235.369 65.8963C235.41 65.9987 235.443 66.1011 235.476 66.1878C235.538 66.3509 235.582 66.5199 235.607 66.6919C235.607 66.7628 235.607 66.8337 235.607 66.8888V67.0621C235.648 67.2354 235.648 67.3378 235.648 67.3378Z" fill="#1DA7FF"/>
<path d="M225.766 45.858L225.494 45.6926L225.346 45.5981C225.286 45.5646 225.223 45.5357 225.157 45.5114C225.001 45.4294 224.835 45.3634 224.664 45.3145C224.565 45.3145 224.467 45.2436 224.36 45.22L224.006 45.1491C223.879 45.1225 223.75 45.104 223.62 45.094C223.478 45.0859 223.335 45.0859 223.192 45.094C222.506 45.0856 221.821 45.1597 221.153 45.3145C219.334 45.7773 217.599 46.5023 216.007 47.4649C213.882 48.71 211.882 50.1391 210.03 51.734C207.77 53.6524 205.654 55.7212 203.699 57.9251C201.445 60.4463 199.382 63.118 197.524 65.9199C196.554 67.3929 195.601 68.9682 194.729 70.5435C193.825 72.2038 193.037 73.9194 192.37 75.6791C191.662 77.4943 191.19 79.3857 190.964 81.3109C190.854 82.294 190.901 83.2874 191.103 84.2568C191.216 84.7422 191.396 85.2111 191.638 85.651C191.892 86.0854 192.23 86.4702 192.633 86.7852C193.051 87.0771 193.522 87.2933 194.022 87.4232C194.525 87.54 195.042 87.5903 195.56 87.5729C196.592 87.5178 197.609 87.3134 198.577 86.9664C200.469 86.279 202.264 85.3688 203.921 84.2568C205.533 83.1988 207.071 82.0411 208.525 80.7911C209.956 79.5702 211.296 78.3099 212.545 77.0339C214.911 74.6083 217.095 72.0263 219.082 69.3069C220.824 66.945 222.39 64.4682 223.768 61.8949C224.917 59.7784 225.863 57.5665 226.596 55.2864C227.171 53.5677 227.468 51.7746 227.476 49.9696C227.473 49.3147 227.379 48.663 227.196 48.032C227.196 47.8902 227.106 47.7642 227.065 47.6381C227.024 47.5121 226.974 47.4018 226.917 47.2916L226.761 46.9844C226.703 46.8899 226.637 46.8032 226.588 46.7245C226.495 46.5766 226.384 46.4392 226.259 46.3149L226.127 46.1573L225.996 46.0471L225.766 45.8423L226.004 46.0392L226.136 46.1495C226.186 46.1957 226.233 46.2458 226.275 46.2991C226.399 46.4246 226.51 46.5618 226.604 46.7087C226.662 46.7953 226.728 46.8741 226.785 46.9686L226.941 47.2837C227.005 47.3942 227.057 47.5103 227.098 47.6303C227.139 47.7563 227.196 47.8823 227.229 48.0241C227.419 48.6569 227.519 49.3113 227.525 49.9696C227.528 51.7793 227.237 53.5784 226.662 55.3022C225.932 57.5886 224.991 59.8081 223.85 61.9343C222.472 64.5128 220.906 66.9948 219.164 69.362C217.182 72.0899 214.997 74.6775 212.628 77.1048C211.378 78.3887 210.038 79.6568 208.599 80.8777C207.142 82.1299 205.601 83.2902 203.987 84.3513C202.323 85.4717 200.52 86.3874 198.618 87.0767C197.639 87.427 196.611 87.6341 195.568 87.6911C195.037 87.7081 194.506 87.6578 193.989 87.5414C193.474 87.4023 192.99 87.1755 192.559 86.8719C192.143 86.5481 191.795 86.1527 191.531 85.7061C191.282 85.2564 191.097 84.777 190.98 84.2805C190.781 83.2999 190.736 82.2962 190.849 81.3031C191.071 79.3661 191.546 77.4635 192.263 75.6397C192.93 73.8774 193.719 72.1592 194.622 70.4963C195.502 68.8579 196.447 67.2983 197.426 65.8175C199.294 63.0168 201.366 60.3453 203.625 57.8227C205.584 55.6192 207.705 53.5528 209.972 51.6395C211.834 50.0463 213.843 48.6175 215.974 47.3703C217.574 46.412 219.318 45.6948 221.145 45.2436C221.815 45.085 222.503 45.0109 223.192 45.0231C223.34 45.0231 223.48 45.0231 223.62 45.0231C223.753 45.0326 223.884 45.051 224.015 45.0782L224.368 45.1491L224.672 45.2515C224.844 45.3028 225.009 45.3715 225.166 45.4563C225.231 45.4805 225.294 45.5095 225.355 45.5429L225.503 45.6453L225.766 45.858Z" fill="#1DA7FF"/>
<path d="M181.221 78.0421C181.361 78.1767 181.456 78.348 181.494 78.5342C181.532 78.7205 181.512 78.9134 181.436 79.0887C181.36 79.264 181.231 79.4138 181.067 79.5192C180.902 79.6245 180.708 79.6808 180.51 79.6808C180.312 79.6808 180.118 79.6245 179.953 79.5192C179.788 79.4138 179.66 79.264 179.584 79.0887C179.508 78.9134 179.487 78.7205 179.526 78.5342C179.564 78.348 179.659 78.1767 179.799 78.0421C179.892 77.9524 180.003 77.8811 180.125 77.8325C180.247 77.7839 180.378 77.7589 180.51 77.7589C180.642 77.7589 180.773 77.7839 180.895 77.8325C181.017 77.8811 181.128 77.9524 181.221 78.0421Z" fill="#1DA7FF"/>
<path d="M237.942 48.1975C237.944 48.3894 237.886 48.5775 237.775 48.7378C237.665 48.8982 237.508 49.0236 237.323 49.0981C237.139 49.1727 236.935 49.193 236.738 49.1565C236.542 49.12 236.361 49.0284 236.219 48.8932C236.076 48.758 235.979 48.5854 235.939 48.3973C235.9 48.2091 235.919 48.0139 235.996 47.8364C236.072 47.6589 236.202 47.5072 236.368 47.4003C236.534 47.2935 236.73 47.2365 236.931 47.2365C237.063 47.2355 237.194 47.2596 237.317 47.3074C237.44 47.3552 237.551 47.4258 237.645 47.5152C237.739 47.6045 237.814 47.7108 237.865 47.8279C237.916 47.945 237.942 48.0706 237.942 48.1975Z" fill="#1DA7FF"/>
<path d="M187.568 81.2086C187.568 81.2569 187.553 81.3041 187.525 81.3442C187.497 81.3844 187.458 81.4157 187.411 81.4342C187.364 81.4526 187.313 81.4575 187.264 81.448C187.214 81.4386 187.169 81.4154 187.133 81.3812C187.098 81.3471 187.073 81.3036 187.063 81.2562C187.054 81.2088 187.059 81.1597 187.078 81.1151C187.097 81.0705 187.13 81.0324 187.172 81.0055C187.214 80.9787 187.263 80.9644 187.313 80.9644C187.381 80.9644 187.446 80.9901 187.494 81.0359C187.541 81.0817 187.568 81.1438 187.568 81.2086Z" fill="#1DA7FF"/>
<path d="M193.019 54.2231C193.019 54.2714 193.004 54.3186 192.976 54.3588C192.948 54.3989 192.908 54.4302 192.862 54.4487C192.815 54.4672 192.764 54.472 192.714 54.4626C192.665 54.4532 192.62 54.4299 192.584 54.3958C192.548 54.3616 192.524 54.3181 192.514 54.2708C192.504 54.2234 192.509 54.1743 192.529 54.1297C192.548 54.0851 192.581 54.0469 192.623 54.0201C192.664 53.9933 192.714 53.9789 192.764 53.9789C192.832 53.9789 192.897 54.0047 192.944 54.0505C192.992 54.0963 193.019 54.1584 193.019 54.2231Z" fill="#1DA7FF"/>
<path d="M232.886 67.3377C232.886 67.4025 232.859 67.4646 232.811 67.5104C232.763 67.5562 232.698 67.5819 232.631 67.5819C232.563 67.5819 232.498 67.5562 232.451 67.5104C232.403 67.4646 232.376 67.4025 232.376 67.3377C232.376 67.273 232.403 67.2108 232.451 67.1651C232.498 67.1193 232.563 67.0935 232.631 67.0935C232.698 67.0935 232.763 67.1193 232.811 67.1651C232.859 67.2108 232.886 67.273 232.886 67.3377Z" fill="#1DA7FF"/>
<path d="M236.437 55.9323C236.437 55.9971 236.411 56.0592 236.363 56.105C236.315 56.1508 236.25 56.1765 236.183 56.1765C236.115 56.1765 236.05 56.1508 236.002 56.105C235.955 56.0592 235.928 55.9971 235.928 55.9323C235.928 55.8676 235.955 55.8055 236.002 55.7597C236.05 55.7139 236.115 55.6882 236.183 55.6882C236.25 55.6882 236.315 55.7139 236.363 55.7597C236.411 55.8055 236.437 55.8676 236.437 55.9323Z" fill="#1DA7FF"/>
<path d="M219.221 72.7175H216.064V56.2474C216.064 54.3819 215.29 52.5928 213.913 51.2737C212.537 49.9546 210.669 49.2135 208.722 49.2135C206.775 49.2135 204.907 49.9546 203.53 51.2737C202.154 52.5928 201.38 54.3819 201.38 56.2474V72.7175H198.198V56.2474C198.198 53.5797 199.304 51.0213 201.273 49.1349C203.242 47.2486 205.913 46.1889 208.697 46.1889C211.482 46.1889 214.152 47.2486 216.121 49.1349C218.09 51.0213 219.196 53.5797 219.196 56.2474L219.221 72.7175Z" fill="#1DA7FF"/>
<g opacity="0.3">
<path d="M219.221 72.7175H216.064V56.2474C216.064 54.3819 215.29 52.5928 213.913 51.2737C212.537 49.9546 210.669 49.2135 208.722 49.2135C206.775 49.2135 204.907 49.9546 203.53 51.2737C202.154 52.5928 201.38 54.3819 201.38 56.2474V72.7175H198.198V56.2474C198.198 53.5797 199.304 51.0213 201.273 49.1349C203.242 47.2486 205.913 46.1889 208.697 46.1889C211.482 46.1889 214.152 47.2486 216.121 49.1349C218.09 51.0213 219.196 53.5797 219.196 56.2474L219.221 72.7175Z" fill="#1E1F25"/>
</g>
<path d="M221.022 65.3922H196.423C195.401 65.3922 194.573 66.1857 194.573 67.1645V81.0117C194.573 81.9905 195.401 82.7839 196.423 82.7839H221.022C222.044 82.7839 222.872 81.9905 222.872 81.0117V67.1645C222.872 66.1857 222.044 65.3922 221.022 65.3922Z" fill="#1DA7FF"/>
<g opacity="0.3">
<path d="M211.09 71.8275C211.093 71.4046 210.973 70.9891 210.743 70.6281C210.513 70.2671 210.183 69.9749 209.789 69.7844C209.394 69.594 208.952 69.5129 208.513 69.5503C208.073 69.5878 207.653 69.7422 207.3 69.9963C206.947 70.2504 206.675 70.5939 206.515 70.9881C206.355 71.3823 206.314 71.8115 206.395 72.2273C206.476 72.643 206.677 73.0287 206.975 73.3408C207.273 73.6529 207.656 73.879 208.081 73.9936V77.3806H209.364V73.9936C209.859 73.8628 210.296 73.5802 210.608 73.1891C210.919 72.7979 211.089 72.3197 211.09 71.8275Z" fill="#1E1F25"/>
</g>
<path d="M196.085 81.1377C196.019 81.1377 195.962 78.2391 195.962 74.6631C195.962 71.087 196.019 68.1805 196.085 68.1805C196.151 68.1805 196.2 71.0792 196.2 74.6631C196.2 78.2469 196.143 81.1377 196.085 81.1377Z" fill="#FAFAFA"/>
<path d="M206.872 74.726C206.872 74.726 206.757 74.726 206.593 74.5764C206.36 74.4102 206.155 74.211 205.984 73.9856C205.685 73.6143 205.476 73.1835 205.372 72.7248C205.269 72.2661 205.273 71.7911 205.386 71.3343C205.499 70.8776 205.716 70.4508 206.023 70.085C206.33 69.7193 206.719 69.4238 207.16 69.2202C207.417 69.088 207.695 68.995 207.982 68.9445C208.088 68.9255 208.197 68.9255 208.303 68.9445C207.939 69.0627 207.585 69.2048 207.242 69.3699C206.841 69.582 206.49 69.8721 206.213 70.2216C205.935 70.5712 205.737 70.9724 205.631 71.3996C205.525 71.8268 205.514 72.2705 205.597 72.7023C205.68 73.1341 205.857 73.5444 206.116 73.9069C206.345 74.1989 206.598 74.4729 206.872 74.726Z" fill="#FAFAFA"/>
<path d="M250.735 97.6945H163.61C159.378 97.6945 155.948 100.981 155.948 105.036V105.933C155.948 109.988 159.378 113.275 163.61 113.275H250.735C254.967 113.275 258.397 109.988 258.397 105.933V105.036C258.397 100.981 254.967 97.6945 250.735 97.6945Z" fill="#F5F5F5"/>
<path d="M251.483 119.056H164.358C160.126 119.056 156.696 122.343 156.696 126.397V127.295C156.696 131.349 160.126 134.636 164.358 134.636H251.483C255.715 134.636 259.145 131.349 259.145 127.295V126.397C259.145 122.343 255.715 119.056 251.483 119.056Z" fill="#F5F5F5"/>
<path d="M172.136 105.358V103.106H173.115V105.327C173.115 106.115 173.46 106.406 174.052 106.406C174.644 106.406 174.989 106.091 174.989 105.327V103.106H175.951V105.358C175.951 105.843 175.75 106.308 175.392 106.651C175.035 106.993 174.55 107.186 174.044 107.186C173.538 107.186 173.053 106.993 172.695 106.651C172.337 106.308 172.136 105.843 172.136 105.358Z" fill="#131517"/>
<path d="M176.535 106.847L176.839 106.201C177.18 106.396 177.569 106.499 177.965 106.501C178.401 106.501 178.557 106.39 178.557 106.217C178.557 105.713 176.609 106.217 176.609 104.996C176.609 104.405 177.16 103.988 178.105 103.988C178.536 103.981 178.962 104.076 179.346 104.264L179.034 104.902C178.751 104.747 178.43 104.668 178.105 104.673C177.686 104.673 177.505 104.799 177.505 104.957C177.505 105.484 179.453 104.957 179.453 106.193C179.453 106.768 178.903 107.178 177.932 107.178C177.444 107.188 176.962 107.074 176.535 106.847Z" fill="#131517"/>
<path d="M183.186 105.839H180.72C180.77 106.033 180.892 106.202 181.063 106.317C181.233 106.431 181.441 106.482 181.649 106.461C181.8 106.468 181.951 106.444 182.092 106.393C182.233 106.341 182.362 106.263 182.471 106.162L182.972 106.682C182.801 106.852 182.593 106.984 182.363 107.07C182.133 107.155 181.887 107.192 181.64 107.178C181.408 107.206 181.172 107.186 180.948 107.12C180.724 107.053 180.518 106.942 180.342 106.792C180.167 106.643 180.027 106.46 179.932 106.255C179.837 106.05 179.789 105.827 179.791 105.603C179.79 105.389 179.835 105.178 179.923 104.981C180.011 104.785 180.139 104.607 180.301 104.46C180.462 104.313 180.654 104.198 180.863 104.124C181.072 104.05 181.294 104.017 181.517 104.027C181.736 104.022 181.955 104.059 182.159 104.136C182.363 104.213 182.549 104.328 182.706 104.475C182.864 104.621 182.988 104.797 183.074 104.991C183.159 105.184 183.203 105.392 183.203 105.603C183.203 105.666 183.186 105.76 183.186 105.839ZM180.72 105.311H182.306C182.259 105.144 182.156 104.997 182.012 104.892C181.869 104.787 181.693 104.73 181.513 104.73C181.333 104.73 181.157 104.787 181.014 104.892C180.87 104.997 180.767 105.144 180.72 105.311Z" fill="#131517"/>
<path d="M185.866 103.988V104.823H185.652C185.537 104.822 185.423 104.845 185.318 104.889C185.212 104.934 185.118 104.999 185.04 105.081C184.962 105.162 184.904 105.259 184.868 105.364C184.832 105.469 184.819 105.58 184.83 105.689V107.147H183.893V104.051H184.789V104.413C184.921 104.267 185.088 104.152 185.275 104.078C185.462 104.004 185.664 103.973 185.866 103.988Z" fill="#131517"/>
<path d="M189.698 105.358V107.131H188.76V105.5C188.76 104.996 188.522 104.768 188.103 104.768C187.683 104.768 187.33 105.035 187.33 105.603V107.131H186.393V104.035H187.289V104.413C187.428 104.278 187.594 104.171 187.778 104.101C187.962 104.03 188.159 103.997 188.358 104.004C188.543 103.992 188.729 104.02 188.902 104.085C189.075 104.15 189.232 104.25 189.36 104.38C189.487 104.509 189.584 104.664 189.643 104.833C189.701 105.002 189.72 105.182 189.698 105.358Z" fill="#131517"/>
<path d="M193.406 105.366V107.131H192.526V106.776C192.418 106.927 192.269 107.047 192.095 107.123C191.922 107.199 191.73 107.229 191.54 107.21C190.783 107.21 190.331 106.808 190.331 106.272C190.331 105.737 190.734 105.343 191.721 105.343H192.444C192.444 104.965 192.206 104.736 191.696 104.736C191.362 104.735 191.036 104.837 190.767 105.028L190.43 104.398C190.845 104.14 191.332 104.008 191.827 104.02C192.83 103.988 193.406 104.413 193.406 105.366ZM192.469 106.154V105.839H191.827C191.383 105.839 191.252 105.997 191.252 106.201C191.252 106.406 191.449 106.579 191.778 106.579C191.921 106.584 192.063 106.545 192.182 106.469C192.301 106.392 192.393 106.282 192.444 106.154H192.469Z" fill="#131517"/>
<path d="M199.711 105.359V107.131H198.774V105.5C198.774 104.996 198.544 104.768 198.165 104.768C197.787 104.768 197.45 105.028 197.45 105.555V107.131H196.554V105.5C196.554 104.996 196.332 104.768 195.937 104.768C195.543 104.768 195.23 105.028 195.23 105.555V107.131H194.252V104.035H195.148V104.413C195.275 104.278 195.432 104.172 195.606 104.101C195.781 104.03 195.97 103.997 196.159 104.004C196.368 103.995 196.576 104.037 196.763 104.126C196.95 104.216 197.11 104.35 197.228 104.516C197.368 104.349 197.546 104.216 197.749 104.127C197.951 104.038 198.173 103.996 198.396 104.004C198.58 103.993 198.765 104.021 198.936 104.087C199.108 104.152 199.262 104.254 199.388 104.383C199.513 104.513 199.608 104.667 199.664 104.836C199.72 105.005 199.736 105.183 199.711 105.359Z" fill="#131517"/>
<path d="M203.74 105.839H201.273C201.315 106.036 201.434 106.209 201.605 106.325C201.776 106.441 201.987 106.489 202.194 106.461C202.345 106.467 202.496 106.444 202.637 106.392C202.778 106.341 202.907 106.262 203.016 106.162L203.51 106.682C203.339 106.853 203.131 106.985 202.901 107.071C202.671 107.157 202.424 107.193 202.178 107.178C201.946 107.205 201.71 107.184 201.488 107.117C201.265 107.05 201.059 106.938 200.885 106.789C200.711 106.64 200.572 106.457 200.477 106.253C200.382 106.048 200.334 105.826 200.336 105.603C200.336 105.389 200.381 105.178 200.469 104.981C200.556 104.785 200.685 104.607 200.846 104.46C201.008 104.313 201.199 104.198 201.408 104.124C201.617 104.05 201.84 104.017 202.063 104.027C202.499 104.027 202.917 104.193 203.225 104.489C203.534 104.784 203.707 105.185 203.707 105.603C203.756 105.666 203.748 105.76 203.74 105.839ZM201.273 105.311H202.868C202.842 105.125 202.742 104.955 202.589 104.836C202.436 104.718 202.242 104.659 202.046 104.673C201.859 104.67 201.677 104.733 201.536 104.851C201.394 104.969 201.304 105.133 201.281 105.311H201.273Z" fill="#131517"/>
<path d="M209.939 105.555C209.939 106.587 209.445 107.178 208.706 107.178C208.53 107.189 208.356 107.146 208.208 107.055C208.06 106.965 207.946 106.831 207.883 106.674C207.774 106.838 207.621 106.971 207.441 107.059C207.26 107.148 207.058 107.189 206.856 107.178C206.48 107.14 206.131 106.971 205.878 106.702C205.625 106.432 205.485 106.083 205.485 105.721C205.485 105.358 205.625 105.009 205.878 104.74C206.131 104.471 206.48 104.301 206.856 104.264C207.03 104.256 207.203 104.287 207.363 104.354C207.523 104.42 207.664 104.522 207.776 104.65V104.311H208.599V106.17C208.599 106.445 208.722 106.54 208.886 106.54C209.051 106.54 209.33 106.233 209.33 105.571C209.334 105.296 209.277 105.024 209.164 104.771C209.05 104.519 208.883 104.292 208.672 104.106C208.461 103.919 208.211 103.777 207.94 103.689C207.668 103.601 207.38 103.569 207.094 103.594C206.516 103.594 205.962 103.814 205.554 104.205C205.145 104.597 204.915 105.128 204.915 105.681C204.915 106.235 205.145 106.766 205.554 107.157C205.962 107.549 206.516 107.769 207.094 107.769C207.503 107.768 207.907 107.682 208.278 107.517L208.467 108.044C208.037 108.233 207.567 108.327 207.094 108.32C206.72 108.34 206.346 108.286 205.995 108.162C205.643 108.039 205.322 107.848 205.05 107.601C204.778 107.355 204.562 107.058 204.414 106.728C204.266 106.399 204.189 106.044 204.189 105.685C204.189 105.327 204.266 104.972 204.414 104.642C204.562 104.313 204.778 104.016 205.05 103.769C205.322 103.523 205.643 103.332 205.995 103.208C206.346 103.085 206.72 103.031 207.094 103.051C207.456 103.022 207.82 103.066 208.163 103.179C208.506 103.292 208.821 103.472 209.088 103.707C209.355 103.942 209.569 104.228 209.715 104.546C209.862 104.864 209.938 105.208 209.939 105.555ZM207.793 105.721C207.805 105.62 207.794 105.518 207.761 105.421C207.728 105.325 207.674 105.236 207.602 105.162C207.53 105.087 207.443 105.028 207.345 104.989C207.248 104.949 207.142 104.93 207.037 104.933C206.819 104.933 206.609 105.016 206.455 105.164C206.301 105.312 206.214 105.512 206.214 105.721C206.214 105.93 206.301 106.13 206.455 106.278C206.609 106.425 206.819 106.508 207.037 106.508C207.142 106.511 207.248 106.492 207.345 106.453C207.443 106.414 207.53 106.354 207.602 106.28C207.674 106.205 207.728 106.117 207.761 106.02C207.794 105.924 207.805 105.822 207.793 105.721Z" fill="#131517"/>
<path d="M216.065 105.359V107.131H215.127V105.5C215.127 104.996 214.897 104.768 214.519 104.768C214.141 104.768 213.804 105.028 213.804 105.555V107.131H212.866V105.5C212.866 104.996 212.644 104.768 212.25 104.768C211.855 104.768 211.543 105.028 211.543 105.555V107.131H210.605V104.035H211.502V104.413C211.629 104.278 211.785 104.172 211.96 104.101C212.135 104.03 212.323 103.997 212.513 104.004C212.722 103.995 212.93 104.037 213.117 104.126C213.304 104.216 213.464 104.35 213.582 104.516C213.72 104.35 213.897 104.217 214.098 104.128C214.299 104.039 214.519 103.997 214.741 104.004C214.926 103.992 215.111 104.019 215.284 104.084C215.457 104.149 215.612 104.25 215.739 104.38C215.865 104.51 215.96 104.665 216.017 104.834C216.073 105.003 216.089 105.182 216.065 105.359Z" fill="#131517"/>
<path d="M219.764 105.366V107.131H218.892V106.776C218.784 106.927 218.635 107.047 218.461 107.123C218.288 107.199 218.096 107.229 217.906 107.21C217.149 107.21 216.697 106.808 216.697 106.272C216.697 105.737 217.1 105.343 218.087 105.343H218.827C218.827 104.965 218.588 104.736 218.087 104.736C217.752 104.732 217.425 104.835 217.158 105.028L216.821 104.398C217.234 104.142 217.718 104.01 218.21 104.02C219.197 103.988 219.764 104.413 219.764 105.366ZM218.827 106.154V105.839H218.185C217.75 105.839 217.61 105.997 217.61 106.201C217.61 106.406 217.807 106.579 218.136 106.579C218.284 106.589 218.43 106.552 218.554 106.476C218.679 106.399 218.774 106.286 218.827 106.154Z" fill="#131517"/>
<path d="M220.504 103.106C220.505 103.035 220.521 102.965 220.551 102.901C220.582 102.836 220.626 102.778 220.68 102.731C220.735 102.684 220.8 102.648 220.87 102.626C220.94 102.603 221.014 102.595 221.088 102.602C221.189 102.612 221.284 102.651 221.363 102.712C221.441 102.774 221.5 102.855 221.531 102.948C221.562 103.04 221.565 103.14 221.538 103.234C221.512 103.327 221.458 103.412 221.382 103.477C221.307 103.542 221.214 103.585 221.113 103.6C221.013 103.616 220.91 103.603 220.818 103.564C220.725 103.525 220.646 103.461 220.59 103.379C220.534 103.298 220.505 103.203 220.504 103.106ZM220.619 104.035H221.548V107.131H220.619V104.035Z" fill="#131517"/>
<path d="M222.428 102.838H223.365V107.107H222.428V102.838Z" fill="#131517"/>
<path d="M224.006 106.619C224.006 106.47 224.068 106.328 224.177 106.223C224.287 106.118 224.435 106.059 224.59 106.059C224.745 106.059 224.893 106.118 225.003 106.223C225.112 106.328 225.174 106.47 225.174 106.619C225.174 106.767 225.112 106.909 225.003 107.014C224.893 107.119 224.745 107.178 224.59 107.178C224.435 107.178 224.287 107.119 224.177 107.014C224.068 106.909 224.006 106.767 224.006 106.619Z" fill="#131517"/>
<path d="M225.527 105.587C225.526 105.367 225.573 105.149 225.665 104.947C225.758 104.746 225.893 104.565 226.063 104.417C226.232 104.268 226.432 104.155 226.65 104.086C226.868 104.016 227.099 103.991 227.328 104.012C227.624 103.988 227.92 104.05 228.179 104.191C228.437 104.331 228.645 104.543 228.775 104.799L228.051 105.169C227.968 105.052 227.855 104.957 227.722 104.894C227.589 104.831 227.442 104.801 227.294 104.808C227.146 104.815 227.003 104.859 226.877 104.934C226.752 105.01 226.649 105.115 226.578 105.24C226.508 105.365 226.472 105.505 226.474 105.646C226.476 105.788 226.516 105.927 226.591 106.05C226.665 106.173 226.771 106.275 226.899 106.347C227.027 106.419 227.171 106.458 227.319 106.461C227.47 106.462 227.619 106.422 227.748 106.347C227.877 106.272 227.982 106.164 228.051 106.036L228.775 106.414C228.643 106.668 228.435 106.879 228.177 107.02C227.919 107.16 227.623 107.223 227.328 107.202C227.095 107.223 226.861 107.197 226.64 107.125C226.42 107.053 226.217 106.936 226.047 106.784C225.877 106.631 225.742 106.445 225.653 106.239C225.563 106.033 225.52 105.81 225.527 105.587Z" fill="#131517"/>
<path d="M229.038 105.587C229.011 105.246 229.092 104.906 229.271 104.61C229.449 104.314 229.716 104.076 230.038 103.928C230.359 103.78 230.719 103.728 231.072 103.778C231.425 103.829 231.753 103.98 232.015 104.212C232.277 104.445 232.459 104.747 232.539 105.08C232.619 105.413 232.593 105.761 232.463 106.079C232.333 106.398 232.107 106.671 231.812 106.864C231.518 107.058 231.17 107.161 230.813 107.162C230.587 107.18 230.359 107.152 230.144 107.081C229.929 107.009 229.732 106.896 229.565 106.748C229.398 106.6 229.265 106.42 229.174 106.22C229.083 106.021 229.037 105.805 229.038 105.587ZM231.636 105.587C231.621 105.435 231.561 105.29 231.463 105.17C231.364 105.05 231.231 104.961 231.08 104.912C230.929 104.863 230.767 104.857 230.612 104.895C230.458 104.933 230.319 105.013 230.211 105.125C230.103 105.238 230.032 105.378 230.006 105.528C229.98 105.679 230 105.834 230.063 105.973C230.127 106.113 230.232 106.232 230.365 106.316C230.498 106.4 230.654 106.445 230.813 106.445C230.928 106.446 231.041 106.423 231.146 106.38C231.251 106.336 231.345 106.271 231.423 106.19C231.5 106.109 231.559 106.014 231.596 105.91C231.632 105.806 231.646 105.696 231.636 105.587Z" fill="#131517"/>
<path d="M238.674 105.359V107.131H237.737V105.5C237.737 104.996 237.498 104.768 237.12 104.768C236.742 104.768 236.405 105.028 236.405 105.555V107.131H235.468V105.5C235.468 104.996 235.246 104.768 234.859 104.768C234.473 104.768 234.152 105.028 234.152 105.555V107.131H233.215V104.035H234.103V104.413C234.232 104.278 234.389 104.172 234.565 104.101C234.741 104.03 234.931 103.997 235.122 104.004C235.33 103.994 235.537 104.036 235.723 104.125C235.909 104.215 236.068 104.35 236.183 104.516C236.323 104.35 236.502 104.218 236.704 104.129C236.907 104.04 237.128 103.997 237.35 104.004C237.535 103.992 237.721 104.019 237.893 104.084C238.066 104.149 238.221 104.25 238.348 104.38C238.475 104.51 238.57 104.665 238.626 104.834C238.682 105.003 238.699 105.182 238.674 105.359Z" fill="#131517"/>
<path d="M184.69 126.933L186.211 127.72L185.529 128.815L183.991 127.949V129.571H182.676V127.933L181.188 128.831L180.514 127.736L182.043 126.948L180.514 126.161L181.188 125.066L182.725 125.948V124.318H184.041V125.948L185.578 125.066L186.261 126.161L184.69 126.933Z" fill="#131517"/>
<path d="M191.029 126.933L192.55 127.72L191.868 128.831L190.331 127.965V129.587H189.023V127.949L187.511 128.831L186.836 127.736L188.357 126.948L186.836 126.161L187.511 125.066L189.048 125.948V124.318H190.355V125.948L191.893 125.066L192.575 126.161L191.029 126.933Z" fill="#131517"/>
<path d="M197.376 126.933L198.897 127.72L198.198 128.831L196.669 127.965V129.587H195.354V127.949L193.857 128.831L193.191 127.736L194.712 126.948L193.191 126.161L193.857 125.066L195.395 125.948V124.318H196.71V125.948L198.239 125.066L198.93 126.161L197.376 126.933Z" fill="#131517"/>
<path d="M203.699 126.933L205.22 127.72L204.538 128.815L203 127.949V129.571H201.685V127.933L200.197 128.831L199.522 127.736L201.052 126.948L199.522 126.161L200.197 125.066L201.734 125.948V124.318H203.05V125.948L204.587 125.066L205.269 126.161L203.699 126.933Z" fill="#131517"/>
<path d="M210.038 126.933L211.559 127.72L210.877 128.815L209.339 127.949V129.571H208.065V127.933L206.536 128.831L205.861 127.736L207.382 126.948L205.861 126.161L206.536 125.066L208.065 125.917V124.286H209.372V125.917L210.909 125.034L211.592 126.129L210.038 126.933Z" fill="#131517"/>
<path d="M216.377 126.933L217.898 127.72L217.215 128.815L215.678 127.949V129.571H214.362V127.933L212.866 128.831L212.2 127.736L213.721 126.948L212.2 126.161L212.866 125.066L214.404 125.948V124.318H215.719V125.948L217.256 125.066L217.939 126.161L216.377 126.933Z" fill="#131517"/>
<path d="M222.707 126.933L224.228 127.72L223.546 128.815L222.008 127.949V129.571H220.693V127.933L219.205 128.831L218.531 127.736L220.06 126.948L218.531 126.161L219.205 125.066L220.742 125.948V124.318H222.041V125.948L223.579 125.066L224.261 126.161L222.707 126.933Z" fill="#131517"/>
<path d="M229.046 126.933L230.567 127.72L229.884 128.815L228.347 127.949V129.571H227.04V127.933L225.543 128.831L224.869 127.736L226.39 126.948L224.869 126.161L225.543 125.066L227.081 125.948V124.318H228.388V125.948L229.925 125.066L230.608 126.161L229.046 126.933Z" fill="#131517"/>
<path d="M154.377 83.4219H90.331C89.893 83.4219 89.4594 83.5047 89.0548 83.6655C88.6503 83.8263 88.2829 84.062 87.9736 84.3591C87.6643 84.6561 87.4192 85.0087 87.2523 85.3967C87.0855 85.7846 87.0002 86.2003 87.0012 86.6199V114.566C86.9957 114.987 87.0781 115.404 87.2435 115.793C87.4088 116.183 87.6539 116.537 87.9642 116.834C88.2745 117.131 88.6438 117.366 89.0502 117.524C89.4567 117.683 89.8922 117.762 90.331 117.756H117.199L122.905 124.775L127.665 117.756H154.377C154.815 117.756 155.248 117.674 155.652 117.514C156.056 117.353 156.423 117.118 156.732 116.822C157.041 116.526 157.286 116.174 157.454 115.787C157.621 115.4 157.707 114.985 157.707 114.566V86.6199C157.707 85.7731 157.357 84.9609 156.732 84.3614C156.108 83.7619 155.261 83.424 154.377 83.4219Z" fill="white"/>
<path d="M154.377 83.4219H154.689C155.001 83.4478 155.308 83.514 155.602 83.6188C156.082 83.7838 156.515 84.0534 156.868 84.4065C157.372 84.9258 157.681 85.5908 157.748 86.2969C157.813 89.3373 157.797 93.764 157.822 99.3722C157.822 102.176 157.822 105.272 157.822 108.627C157.822 110.313 157.822 112.054 157.822 113.865C157.844 114.328 157.822 114.792 157.756 115.252C157.655 115.729 157.447 116.181 157.148 116.575C156.84 116.979 156.442 117.312 155.982 117.549C155.522 117.786 155.013 117.921 154.492 117.945H127.624L127.788 117.867C126.292 120.064 124.68 122.451 123.036 124.877L122.88 125.105L122.699 124.893L116.993 117.882L117.158 117.961H91.3171C90.8485 117.961 90.4127 117.961 89.9112 117.961C89.1815 117.878 88.4967 117.58 87.9505 117.109C87.4044 116.638 87.0238 116.017 86.861 115.33C86.779 114.889 86.7487 114.439 86.7705 113.991V102.452C86.7705 99.0965 86.7705 95.8067 86.7705 92.5825V86.6198C86.7708 86.2048 86.8517 85.7935 87.009 85.4068C87.3138 84.6382 87.8976 84.0006 88.6533 83.6109C89.0308 83.426 89.4404 83.3085 89.8619 83.2644C90.2672 83.2449 90.6733 83.2449 91.0787 83.2644H98.0753H106.938H122.839L145.859 83.3274L152.116 83.3668L145.859 83.4062L122.839 83.4692H106.938H91.1444C90.7498 83.4692 90.3223 83.4692 89.9687 83.4692C89.5953 83.5102 89.2329 83.617 88.8999 83.7842C88.22 84.1179 87.6907 84.6782 87.4118 85.3596C87.2708 85.7033 87.1983 86.0693 87.1981 86.4387V87.6202C87.1981 89.1955 87.1981 90.7708 87.1981 92.4013V102.271C87.1981 105.621 87.1981 109.034 87.1981 112.51V113.818C87.172 114.237 87.1969 114.657 87.2721 115.07C87.4169 115.674 87.7531 116.219 88.2344 116.633C88.7157 117.046 89.3186 117.306 89.9605 117.378C90.3798 117.418 90.8649 117.378 91.3171 117.378H117.297L117.363 117.457L123.069 124.467H122.732L127.492 117.457L127.55 117.37H127.665H154.517C154.989 117.355 155.452 117.237 155.87 117.024C156.287 116.811 156.648 116.509 156.926 116.142C157.204 115.788 157.395 115.379 157.485 114.944C157.548 114.503 157.57 114.058 157.55 113.613C157.55 111.802 157.55 110.061 157.55 108.375C157.55 105.02 157.55 101.924 157.55 99.1201C157.55 93.5277 157.55 89.101 157.591 86.0527C157.519 85.3938 157.231 84.7737 156.769 84.2805C156.432 83.9192 156.013 83.6363 155.544 83.4534C155.159 83.3897 154.766 83.3791 154.377 83.4219Z" fill="#131517"/>
<path d="M110.358 91.3143V92.3462H109.659V91.3064L108.476 89.4475H109.224L110.046 90.7393L110.868 89.4475H111.559L110.358 91.3143Z" fill="#131517"/>
<path d="M111.526 90.889C111.511 90.5748 111.595 90.2635 111.767 89.9953C111.938 89.7271 112.189 89.5142 112.488 89.384C112.787 89.2538 113.12 89.2123 113.443 89.2649C113.767 89.3174 114.067 89.4616 114.304 89.6788C114.542 89.896 114.706 90.1764 114.776 90.4837C114.845 90.7911 114.817 91.1114 114.695 91.4034C114.573 91.6954 114.363 91.9457 114.091 92.1222C113.819 92.2986 113.499 92.3931 113.17 92.3934C112.958 92.403 112.746 92.3712 112.547 92.2999C112.348 92.2286 112.166 92.1193 112.012 91.9786C111.858 91.838 111.736 91.6689 111.652 91.4815C111.569 91.2942 111.526 91.0926 111.526 90.889ZM114.141 90.889C114.139 90.7086 114.082 90.5327 113.976 90.3835C113.87 90.2343 113.721 90.1184 113.546 90.0505C113.372 89.9825 113.18 89.9655 112.996 90.0017C112.811 90.0378 112.642 90.1255 112.51 90.2535C112.377 90.3816 112.287 90.5445 112.251 90.7215C112.215 90.8985 112.234 91.0818 112.307 91.2483C112.379 91.4148 112.501 91.557 112.658 91.6571C112.815 91.7571 112.999 91.8105 113.187 91.8105C113.314 91.8138 113.44 91.7922 113.558 91.747C113.676 91.7017 113.782 91.6338 113.872 91.5475C113.961 91.4611 114.031 91.3581 114.077 91.2449C114.124 91.1316 114.145 91.0105 114.141 90.889Z" fill="#131517"/>
<path d="M115.365 91.0623V89.4475H116.072V91.0229C116.072 91.5742 116.327 91.8105 116.746 91.8105C117.166 91.8105 117.429 91.5821 117.429 91.0229V89.4475H118.128V91.078C118.128 91.429 117.982 91.7655 117.723 92.0137C117.464 92.2619 117.113 92.4013 116.746 92.4013C116.38 92.4013 116.029 92.2619 115.77 92.0137C115.511 91.7655 115.365 91.429 115.365 91.078V91.0623Z" fill="#131517"/>
<path d="M120.767 92.3462L120.184 91.5585H119.534V92.3462H118.827V89.4475H120.143C120.965 89.4475 121.466 89.8492 121.466 90.503C121.475 90.6999 121.42 90.8945 121.308 91.0597C121.196 91.225 121.033 91.3525 120.841 91.4246L121.524 92.3619L120.767 92.3462ZM120.11 89.9831H119.534V91.0229H120.11C120.537 91.0229 120.751 90.826 120.751 90.5109C120.751 90.1958 120.537 89.9753 120.093 89.9753L120.11 89.9831Z" fill="#131517"/>
<path d="M123.069 90.889C123.072 90.566 123.178 90.2515 123.374 89.9883C123.569 89.7251 123.845 89.5258 124.162 89.4175C124.48 89.3092 124.825 89.297 125.15 89.3827C125.475 89.4684 125.765 89.6478 125.98 89.8966L125.528 90.2983C125.434 90.1883 125.317 90.1 125.183 90.04C125.049 89.98 124.903 89.9498 124.755 89.9517C124.512 89.9731 124.286 90.0807 124.122 90.2534C123.957 90.426 123.866 90.6513 123.866 90.8851C123.866 91.1188 123.957 91.3441 124.122 91.5168C124.286 91.6895 124.512 91.7971 124.755 91.8185C124.902 91.8219 125.048 91.7932 125.182 91.7345C125.316 91.6758 125.434 91.5887 125.528 91.4798L125.98 91.8736C125.765 92.1219 125.476 92.3011 125.152 92.387C124.827 92.4729 124.483 92.4614 124.166 92.3541C123.849 92.2467 123.573 92.0487 123.377 91.7867C123.181 91.5247 123.074 91.2114 123.069 90.889Z" fill="#131517"/>
<path d="M126.202 90.889C126.187 90.5748 126.271 90.2635 126.442 89.9953C126.614 89.7271 126.865 89.5142 127.164 89.384C127.463 89.2538 127.796 89.2123 128.119 89.2649C128.443 89.3174 128.743 89.4616 128.98 89.6788C129.218 89.896 129.382 90.1764 129.451 90.4837C129.521 90.7911 129.493 91.1114 129.371 91.4034C129.249 91.6954 129.039 91.9457 128.767 92.1222C128.495 92.2986 128.174 92.3931 127.846 92.3934C127.634 92.403 127.422 92.3712 127.222 92.2999C127.023 92.2286 126.841 92.1193 126.688 91.9786C126.534 91.838 126.412 91.6689 126.328 91.4815C126.245 91.2942 126.202 91.0926 126.202 90.889ZM128.816 90.889C128.813 90.709 128.754 90.5339 128.648 90.3857C128.541 90.2375 128.391 90.1229 128.216 90.0561C128.042 89.9894 127.851 89.9735 127.667 90.0105C127.483 90.0476 127.314 90.1358 127.183 90.2642C127.051 90.3926 126.962 90.5554 126.926 90.7322C126.891 90.909 126.911 91.0919 126.983 91.2579C127.056 91.424 127.178 91.5657 127.335 91.6655C127.491 91.7652 127.675 91.8184 127.863 91.8184C127.99 91.8218 128.117 91.7999 128.236 91.7542C128.354 91.7085 128.461 91.6399 128.551 91.5527C128.64 91.4655 128.71 91.3615 128.756 91.2473C128.801 91.1331 128.822 91.0111 128.816 90.889Z" fill="#131517"/>
<path d="M130.065 89.4476H131.455C131.668 89.4264 131.883 89.4482 132.087 89.5118C132.291 89.5753 132.478 89.6791 132.637 89.8165C132.796 89.9539 132.923 90.1218 133.01 90.3092C133.097 90.4967 133.142 90.6996 133.142 90.9048C133.142 91.11 133.097 91.3129 133.01 91.5004C132.923 91.6878 132.796 91.8557 132.637 91.9931C132.478 92.1304 132.291 92.2343 132.087 92.2978C131.883 92.3614 131.668 92.3832 131.455 92.362H130.065V89.4476ZM131.414 91.8106C131.665 91.8106 131.905 91.7152 132.082 91.5453C132.26 91.3754 132.359 91.145 132.359 90.9048C132.359 90.6646 132.26 90.4342 132.082 90.2643C131.905 90.0944 131.665 89.999 131.414 89.999H130.781V91.8106H131.414Z" fill="#131517"/>
<path d="M136.027 91.8105V92.354H133.667V89.4475H135.969V89.9831H134.366V90.6212H135.78V91.1489H134.366V91.8105H136.027Z" fill="#131517"/>
<path d="M148.129 95.4103H96.5876C94.9757 95.4103 93.6689 96.6622 93.6689 98.2065V108.635C93.6689 110.18 94.9757 111.431 96.5876 111.431H148.129C149.741 111.431 151.048 110.18 151.048 108.635V98.2065C151.048 96.6622 149.741 95.4103 148.129 95.4103Z" fill="#F5F5F5"/>
<path d="M105.294 104.413C105.295 104.743 105.225 105.069 105.087 105.372C104.949 105.674 104.746 105.945 104.492 106.167C104.238 106.39 103.938 106.559 103.612 106.664C103.286 106.769 102.94 106.807 102.597 106.776C100.476 106.776 99.3496 105.311 99.3496 102.885C99.3496 100.254 100.805 98.9075 102.951 98.9075C103.587 98.881 104.22 99.0169 104.784 99.3013L104.546 99.7582C104.058 99.5022 103.506 99.3796 102.951 99.4037C101.134 99.4037 99.9416 100.546 99.9416 102.799C99.939 103.11 99.961 103.42 100.007 103.728C100.2 103.232 100.557 102.81 101.023 102.526C101.489 102.242 102.038 102.111 102.589 102.153C104.241 102.098 105.294 103.003 105.294 104.413ZM104.702 104.413C104.702 103.303 103.88 102.586 102.507 102.586C102.231 102.559 101.952 102.586 101.688 102.665C101.423 102.745 101.179 102.875 100.969 103.049C100.759 103.222 100.588 103.434 100.466 103.673C100.345 103.912 100.275 104.172 100.262 104.437C100.262 105.343 101.084 106.256 102.581 106.256C102.852 106.289 103.128 106.266 103.389 106.188C103.65 106.11 103.891 105.979 104.095 105.804C104.299 105.63 104.462 105.415 104.572 105.175C104.683 104.935 104.738 104.675 104.735 104.413H104.702Z" fill="#1DA7FF"/>
<path d="M116.072 104.539H114.379V106.69H113.795V104.539H109.183V104.13L113.581 98.9311H114.239L109.923 104.035H113.811V102.145H114.379V104.035H116.072V104.539Z" fill="#1DA7FF"/>
<path d="M125.067 104.5C125.067 105.792 124.097 106.745 122.231 106.745C121.706 106.764 121.183 106.681 120.692 106.501C120.202 106.321 119.755 106.048 119.378 105.697L119.674 105.264C120.01 105.581 120.41 105.83 120.85 105.994C121.289 106.158 121.759 106.234 122.231 106.217C123.686 106.217 124.467 105.555 124.467 104.5C124.467 103.444 123.727 102.783 122.107 102.783H121.598V102.373L123.99 99.4352H119.674V98.8996H124.755V99.2935L122.288 102.279C124.204 102.35 125.067 103.24 125.067 104.5Z" fill="#1DA7FF"/>
<path d="M134.891 98.8996V99.2935L131.414 106.658H130.764L134.209 99.4037H129.662V100.892H129.087V98.8996H134.891Z" fill="#1DA7FF"/>
<path d="M139.002 102.838C139.002 100.412 140.31 98.8996 142.168 98.8996C144.026 98.8996 145.341 100.404 145.341 102.838C145.341 105.272 144.034 106.776 142.168 106.776C140.301 106.776 139.002 105.201 139.002 102.838ZM144.758 102.838C144.758 100.68 143.705 99.4274 142.176 99.4274C140.647 99.4274 139.594 100.68 139.594 102.838C139.594 104.996 140.647 106.249 142.176 106.249C143.705 106.249 144.758 104.965 144.758 102.838Z" fill="#1DA7FF"/>
<path d="M315.274 305.678C326.037 301.299 338.5 292.689 344.05 282.127C332.107 286.876 322.036 295.119 315.274 305.678Z" fill="#131517"/>
<path d="M317.568 289.287C328.33 284.915 340.794 276.306 346.344 265.743C334.399 270.485 324.326 278.726 317.568 289.287Z" fill="#131517"/>
<path d="M320.7 273.352C331.471 268.973 343.926 260.364 349.476 249.809C337.532 254.552 327.46 262.793 320.7 273.352Z" fill="#131517"/>
<path d="M324.581 256.669C334.735 250.919 346.056 240.68 350.298 229.511C339.015 235.808 330.041 245.295 324.606 256.669" fill="#131517"/>
<path d="M328.757 243.901C336.157 234.63 343.055 220.831 342.964 208.874C334.74 218.959 329.798 231.142 328.757 243.901Z" fill="#131517"/>
<path d="M326.685 249.974C325.189 237.435 320.108 221.673 311.459 212.269C312.919 225.917 318.178 238.939 326.685 249.974Z" fill="#131517"/>
<path d="M323.208 263.688C320.577 250.762 313.917 234.772 304.101 225.706C306.788 239.783 313.389 252.904 323.208 263.688Z" fill="#131517"/>
<path d="M319.212 280.41C316.59 267.46 309.914 251.494 300.146 242.428C302.834 256.505 309.435 269.626 319.253 280.41" fill="#131517"/>
<path d="M316.005 300.944C313.366 288.019 306.707 272.029 296.898 262.963C299.586 277.039 306.187 290.161 316.005 300.944Z" fill="#131517"/>
<path d="M329.259 241.467C329.219 241.528 329.191 241.594 329.177 241.664C329.119 241.814 329.053 242.003 328.971 242.239C328.79 242.783 328.535 243.531 328.223 244.476C327.574 246.422 326.702 249.25 325.674 252.763C324.647 256.276 323.512 260.474 322.345 265.16C321.177 269.847 320.026 275.038 318.941 280.504C317.856 285.971 317.009 291.217 316.293 295.99C315.578 300.763 315.068 305.079 314.698 308.703C314.329 312.326 314.065 315.272 313.934 317.312C313.868 318.304 313.819 319.084 313.778 319.675C313.778 319.927 313.778 320.124 313.778 320.289C313.767 320.357 313.767 320.426 313.778 320.494C313.803 320.428 313.817 320.359 313.819 320.289C313.819 320.132 313.819 319.927 313.885 319.683C313.942 319.116 314.024 318.336 314.123 317.32C314.304 315.296 314.608 312.358 315.019 308.734C315.43 305.111 315.998 300.81 316.705 296.045C317.412 291.28 318.349 286.049 319.385 280.583C320.421 275.117 321.621 269.942 322.747 265.247C323.874 260.553 324.992 256.354 325.987 252.833C326.982 249.313 327.804 246.477 328.404 244.524L329.078 242.263C329.144 242.027 329.193 241.83 329.243 241.672C329.257 241.605 329.263 241.536 329.259 241.467Z" fill="#131517"/>
<path d="M310.012 312.499C314.575 303.347 317.897 290.445 315.66 280.418C310.558 290.357 308.595 301.507 310.012 312.499Z" fill="#455A64"/>
<path d="M302.44 300.645C307.003 291.484 310.325 278.59 308.08 268.563C302.976 278.502 301.016 289.653 302.44 300.645Z" fill="#455A64"/>
<path d="M295.633 288.586C300.196 279.425 303.518 266.531 301.273 256.504C296.169 266.443 294.209 277.594 295.633 288.586Z" fill="#455A64"/>
<path d="M288.924 275.581C292.319 265.893 294.021 252.676 290.568 243.011C286.737 253.486 286.166 264.801 288.924 275.581Z" fill="#455A64"/>
<path d="M284.525 264.932C284.188 254.621 281.023 241.704 274.339 234.087C274.488 245.106 278.032 255.836 284.525 264.932Z" fill="#455A64"/>
<path d="M286.572 270.044C278.655 262.892 266.618 255.779 255.799 254.85C264.261 262.72 274.971 268.008 286.572 270.044Z" fill="#455A64"/>
<path d="M291.924 280.898C283.053 274.156 269.866 267.839 258.471 267.815C268.023 275.254 279.667 279.808 291.924 280.898Z" fill="#455A64"/>
<path d="M298.584 293.981C289.713 287.247 276.534 280.922 265.139 280.898C274.689 288.336 286.329 292.89 298.584 293.981Z" fill="#455A64"/>
<path d="M307.883 309.041C299.012 302.299 285.824 295.982 274.429 295.95C283.979 303.395 295.624 307.952 307.883 309.041Z" fill="#455A64"/>
<path d="M283.522 263.065C283.522 263.065 283.522 263.12 283.571 263.231L283.752 263.719L284.492 265.57C285.142 267.145 286.136 269.508 287.394 272.328C289.927 277.991 293.684 285.719 298.346 294.021C300.68 298.156 303.024 302.047 305.211 305.536C307.398 309.026 309.478 312.129 311.262 314.697C313.046 317.265 314.55 319.32 315.57 320.722L316.787 322.298L317.107 322.707C317.181 322.802 317.222 322.849 317.231 322.841C317.204 322.787 317.174 322.734 317.14 322.684L316.852 322.251C316.565 321.849 316.186 321.297 315.701 320.604C314.682 319.179 313.235 317.099 311.5 314.516C309.765 311.932 307.718 308.813 305.531 305.324C303.344 301.834 301.034 297.935 298.699 293.8C294.037 285.577 290.28 277.858 287.657 272.186C286.358 269.367 285.331 267.074 284.64 265.483L283.818 263.656L283.596 263.183C283.575 263.142 283.55 263.102 283.522 263.065Z" fill="#131517"/>
<path d="M288.291 313.61H333.641V321.983H328.98L325.058 345.865H297.022L292.986 321.983H288.291V313.61Z" fill="#1DA7FF"/>
<path d="M288.291 321.81C288.291 321.699 298.371 321.605 310.802 321.605C323.233 321.605 333.313 321.699 333.313 321.81C333.313 321.92 323.241 322.006 310.802 322.006C298.362 322.006 288.291 321.92 288.291 321.81Z" fill="#131517"/>
<path d="M28.5127 345.881H21.1544L18.4248 314.13H27.0904L28.5127 345.881Z" fill="#131517"/>
<path d="M92.3125 345.881H99.6708L102.4 314.13H93.7348L92.3125 345.881Z" fill="#131517"/>
<path d="M107.457 318.155L12.7108 320.281L9.83327 261.655C9.76538 260.295 9.98645 258.936 10.4831 257.66C10.9797 256.384 11.7415 255.218 12.7224 254.233C13.7033 253.248 14.8828 252.463 16.1895 251.928C17.4962 251.392 18.9028 251.116 20.324 251.116H101.052C102.493 251.116 103.918 251.4 105.24 251.95C106.561 252.5 107.75 253.305 108.733 254.314C109.717 255.323 110.473 256.515 110.954 257.816C111.436 259.117 111.634 260.499 111.535 261.876L107.457 318.155Z" fill="#1DA7FF"/>
<path d="M112.315 261.458H112.052H111.271L108.287 261.506H97.3027C88.0287 261.506 75.2195 261.427 61.0783 261.742C46.9289 262.191 34.1032 262.112 24.8374 261.978C20.2005 261.907 16.4432 261.821 13.8534 261.742L10.8689 261.647H10.0961C10.0088 261.658 9.92034 261.658 9.83301 261.647H10.0961H10.8689H13.8534L24.8374 261.75C34.1114 261.813 46.9207 261.844 61.0701 261.388C75.2195 261.08 88.0287 261.222 97.3027 261.285L108.287 261.372L111.271 261.411H112.052L112.315 261.458Z" fill="#131517"/>
<path d="M44.3882 252.03C42.2586 252.328 40.1865 252.926 38.2384 253.802C36.3521 254.797 34.6313 256.055 33.1328 257.536C33.4345 256.987 33.8322 256.491 34.3085 256.071C36.4939 253.917 39.3613 252.516 42.4643 252.085C43.0972 251.959 43.7485 251.94 44.3882 252.03Z" fill="#131517"/>
<path d="M83.3589 145.435L94.9349 165.702L111.871 156.612L120.093 159.219C120.093 159.219 99.3417 180.817 95.9626 181.943C92.5835 183.07 86.1871 183.251 82.5367 178.863C79.2481 174.87 69.5137 153.918 69.5137 153.918L83.3589 145.435Z" fill="#FFBE9D"/>
<path d="M131.036 132.202C130.887 132.027 130.694 131.892 130.476 131.809C130.257 131.727 130.019 131.699 129.786 131.73L121.737 132.769C121.388 132.819 121.053 132.941 120.757 133.126C120.46 133.311 120.209 133.554 120.019 133.84L103.239 158.534L104.521 159.219L113.45 158.951L131.291 132.509L131.036 132.202Z" fill="#131517"/>
<path d="M125.322 135.408C125.386 135.506 125.481 135.582 125.593 135.625C125.705 135.668 125.828 135.677 125.945 135.649C126.062 135.622 126.168 135.56 126.246 135.472C126.324 135.384 126.372 135.275 126.382 135.159C126.392 135.044 126.364 134.929 126.302 134.83C126.24 134.731 126.147 134.653 126.036 134.607C125.925 134.561 125.802 134.55 125.684 134.575C125.566 134.6 125.46 134.66 125.379 134.746C125.284 134.829 125.226 134.944 125.215 135.066C125.204 135.189 125.243 135.311 125.322 135.408Z" fill="white"/>
<path d="M131.291 132.509C130.779 132.647 130.257 132.744 129.729 132.801L125.454 133.439L122.502 133.848C122.252 133.87 122.01 133.945 121.794 134.067C121.577 134.19 121.393 134.357 121.253 134.557L120.299 135.975C118.975 137.921 117.536 140.055 116.024 142.276C112.973 146.75 110.194 150.791 108.156 153.705L105.73 157.187C105.448 157.619 105.132 158.03 104.785 158.416C105.016 157.952 105.291 157.509 105.607 157.092L107.909 153.579C109.874 150.618 112.603 146.553 115.654 142.079C117.183 139.85 118.638 137.724 119.962 135.778C120.299 135.298 120.628 134.825 120.94 134.36C121.115 134.119 121.344 133.918 121.61 133.771C121.876 133.624 122.172 133.534 122.478 133.51L125.446 133.147L129.745 132.659C130.256 132.57 130.773 132.52 131.291 132.509Z" fill="#455A64"/>
<path d="M122.338 141.323C122.338 141.323 121.623 141.205 121.228 143.088C120.833 144.97 119.584 150.374 119.584 150.374L115.818 148.46L111.099 149.05C111.099 149.05 110.071 149.956 110.828 150.452C111.584 150.949 114.56 151.453 114.56 151.453L116.755 154.485L110.449 151.571C110.449 151.571 108.345 152.099 108.961 153.327C109.578 154.556 113.829 158.408 113.829 158.408L110.671 158.179L106.939 155.99C106.939 155.99 105.788 156.045 106.215 156.982C106.643 157.92 110.556 161.322 110.556 161.322L115.292 163.528C115.292 163.528 117.882 163.331 118.128 162.598C118.296 162.022 118.401 161.431 118.441 160.834C118.441 160.834 119.814 160.479 120.085 159.841C120.236 159.305 120.267 158.744 120.176 158.195C120.176 158.195 122.33 158.558 122.601 157.408C122.789 155.974 122.728 154.521 122.42 153.107C122.206 152.217 123.341 143.986 123.242 143.741C123.144 143.497 123.694 140.78 122.338 141.323Z" fill="#FFBE9D"/>
<path d="M118.251 162.614C117.877 162.829 117.454 162.953 117.018 162.976C114.917 163.268 112.779 162.781 111.041 161.614C110.391 161.165 110.071 160.826 110.112 160.755C110.153 160.684 111.699 161.881 114.001 162.393C116.303 162.905 118.227 162.472 118.251 162.614Z" fill="#EB996E"/>
<path d="M117.133 160.983C117.059 161.086 116.213 160.668 115.316 159.96C114.42 159.251 113.828 158.55 113.919 158.463C114.009 158.376 114.741 158.912 115.629 159.605C116.517 160.298 117.207 160.873 117.133 160.983Z" fill="#EB996E"/>
<path d="M119.625 157.069C119.551 157.171 118.712 156.762 117.874 156.013C117.035 155.265 116.542 154.509 116.64 154.438C116.739 154.367 117.397 154.966 118.203 155.683C119.008 156.399 119.699 156.959 119.625 157.069Z" fill="#EB996E"/>
<path d="M122.247 153.91C122.115 153.965 121.639 153.123 120.89 152.185C120.142 151.248 119.41 150.61 119.493 150.484C119.575 150.358 120.479 150.909 121.269 151.902C121.809 152.454 122.152 153.158 122.247 153.91Z" fill="#EB996E"/>
<path d="M125.445 299.991C125.508 299.745 125.508 299.489 125.445 299.243C125.312 298.562 125.032 297.916 124.623 297.345C124.489 297.147 124.332 296.964 124.154 296.801C124.038 296.696 123.894 296.623 123.738 296.589C123.581 296.556 123.419 296.564 123.267 296.612C123.177 296.642 123.096 296.69 123.029 296.755C122.962 296.819 122.911 296.897 122.88 296.982C122.823 297.146 122.823 297.323 122.88 297.486C122.992 297.76 123.13 298.024 123.291 298.274C123.595 298.77 123.85 299.259 124.245 299.849C124.36 300.008 124.518 300.134 124.702 300.213C124.886 300.292 125.089 300.321 125.289 300.298C125.657 300.236 126.003 300.09 126.3 299.873C126.845 299.491 127.341 299.049 127.78 298.558C127.992 298.324 128.189 298.08 128.372 297.825C128.572 297.576 128.72 297.293 128.808 296.99C128.857 296.812 128.84 296.623 128.758 296.456C128.677 296.289 128.538 296.155 128.364 296.076C128.201 296.031 128.029 296.025 127.863 296.061C127.698 296.097 127.545 296.173 127.418 296.281C127.043 296.596 126.711 296.956 126.432 297.352C126.018 297.909 125.689 298.519 125.454 299.164C125.345 299.392 125.289 299.639 125.289 299.889C125.679 299.06 126.149 298.269 126.695 297.526C126.974 297.172 127.294 296.849 127.649 296.565C127.838 296.439 128.068 296.352 128.208 296.423C128.289 296.469 128.351 296.54 128.384 296.625C128.417 296.709 128.419 296.802 128.389 296.888C128.303 297.134 128.172 297.363 128.002 297.565C127.83 297.801 127.64 298.03 127.443 298.258C127.018 298.716 126.544 299.131 126.029 299.495C125.788 299.673 125.506 299.792 125.207 299.842C125.084 299.856 124.96 299.837 124.848 299.787C124.736 299.737 124.641 299.657 124.574 299.558C124.253 299.109 123.941 298.55 123.637 298.085C123.497 297.841 123.324 297.605 123.242 297.408C123.16 297.211 123.242 297.053 123.365 296.99C123.719 296.856 124.072 297.242 124.311 297.565C124.845 298.298 125.23 299.121 125.445 299.991Z" fill="#131517"/>
<path d="M105.245 300.653L95.2147 321.487L79.0264 314.319L89.402 288.539L105.245 300.653Z" fill="#FFBE9D"/>
<path d="M97.0723 320.092L91.2102 330.805C91.2102 330.805 106.215 345.668 104.809 348.992L69.5381 332.79L79.2231 311.31L97.0723 320.092Z" fill="#455A64"/>
<path d="M81.0734 324.33C80.6858 324.283 80.2934 324.37 79.9665 324.575C79.6396 324.78 79.3995 325.089 79.2893 325.449C79.2149 325.819 79.2922 326.202 79.505 326.519C79.7178 326.835 80.0499 327.062 80.4321 327.15C80.8439 327.21 81.2641 327.121 81.6118 326.901C81.9594 326.682 82.2099 326.347 82.3149 325.961C82.3498 325.566 82.2237 325.174 81.963 324.867C81.7023 324.56 81.3274 324.362 80.9172 324.314" fill="#E0E0E0"/>
<g opacity="0.6">
<path d="M69.5713 332.79L71.0347 330.096L104.308 346.637C104.308 346.637 105.549 348.007 104.842 349L69.5713 332.79Z" fill="white"/>
</g>
<path d="M91.9014 330.891C91.8191 331.057 90.9148 330.734 89.8048 330.891C88.6949 331.049 87.8892 331.522 87.7659 331.38C87.6425 331.238 88.3743 330.411 89.7226 330.261C91.071 330.112 92.0165 330.757 91.9014 330.891Z" fill="#131517"/>
<path d="M94.8693 334.058C94.8693 334.239 93.9403 334.176 93.0112 334.601C92.0822 335.027 91.5396 335.696 91.3669 335.61C91.1942 335.523 91.556 334.538 92.7317 334.034C93.9074 333.53 94.9433 333.9 94.8693 334.058Z" fill="#131517"/>
<path d="M94.845 339.264C94.6723 339.264 94.845 338.295 95.7411 337.594C96.6373 336.893 97.6239 336.901 97.6239 337.075C97.6239 337.248 96.8921 337.5 96.1604 338.083C95.4287 338.666 95.0258 339.327 94.845 339.264Z" fill="#131517"/>
<path d="M93.5866 326.772C93.4386 326.89 92.7644 326.299 91.7614 325.913C90.7583 325.527 89.8457 325.472 89.8293 325.291C89.8129 325.11 90.8323 324.858 92.008 325.291C93.1837 325.724 93.7346 326.677 93.5866 326.772Z" fill="#131517"/>
<path d="M100.41 317.312L126.859 253.912C126.859 253.912 126.259 243.09 124.179 239.679C122.099 236.269 59.105 216.333 59.105 216.333C59.105 216.333 43.0646 212.631 32.3601 216.333C21.6556 220.035 13.6395 232.874 15.0947 239.963C16.55 247.052 22.8477 252.306 22.8477 252.306L69.1765 253.629L94.425 262.451L77.4228 309.136L100.41 317.312Z" fill="#131517"/>
<path d="M123.933 273.99L124.533 296.919L106.7 297.345L104.135 269.823L123.933 273.99Z" fill="#FFBE9D"/>
<path d="M125.594 294.871L125.265 306.962C125.265 306.962 145.572 313.949 145.819 317.533L106.709 317.911L105.5 294.541L125.594 294.871Z" fill="#455A64"/>
<path d="M113.154 305.458C112.779 305.571 112.461 305.813 112.261 306.137C112.06 306.461 111.992 306.845 112.069 307.214C112.173 307.577 112.419 307.888 112.756 308.083C113.092 308.278 113.494 308.342 113.878 308.262C114.274 308.14 114.609 307.881 114.819 307.537C115.028 307.192 115.097 306.785 115.012 306.395C114.864 306.026 114.572 305.726 114.198 305.56C113.823 305.394 113.396 305.374 113.006 305.505" fill="#E0E0E0"/>
<g opacity="0.6">
<path d="M106.733 317.911L106.807 314.87L144.281 315.658C144.281 315.658 146.024 316.367 145.843 317.548L106.733 317.911Z" fill="white"/>
</g>
<path d="M125.897 306.765C125.897 306.946 124.935 307.041 124.006 307.639C123.077 308.238 122.576 309.01 122.403 308.939C122.23 308.868 122.502 307.805 123.645 307.104C124.787 306.403 125.938 306.6 125.897 306.765Z" fill="#131517"/>
<path d="M130.017 308.348C130.066 308.53 129.236 308.845 128.595 309.624C127.953 310.404 127.772 311.2 127.592 311.2C127.411 311.2 127.263 310.16 128.085 309.199C128.907 308.238 130.009 308.175 130.017 308.348Z" fill="#131517"/>
<path d="M132.426 313.035C132.253 313.074 131.982 312.161 132.426 311.152C132.87 310.144 133.799 309.743 133.881 309.892C133.963 310.042 133.412 310.585 133.059 311.412C132.705 312.239 132.582 313.011 132.426 313.035Z" fill="#131517"/>
<path d="M125.503 302.354C125.429 302.519 124.549 302.275 123.472 302.354C122.395 302.433 121.557 302.772 121.45 302.614C121.343 302.456 122.149 301.826 123.423 301.724C124.697 301.622 125.602 302.204 125.503 302.354Z" fill="#131517"/>
<path d="M113.515 210.315C113.515 210.315 124.204 209.528 125.387 220.602C126.571 231.677 127.739 283.521 127.739 283.521L102.827 285.514L98.9632 232.559L59.146 216.333C59.146 216.333 106.387 208.897 113.515 210.315Z" fill="#131517"/>
<path d="M69.4972 195.334C69.4972 195.334 75.9758 212.749 74.7426 214.687C73.5093 216.624 56.8441 224.611 56.8441 224.611L15.1277 239.963C15.1277 239.963 10.8442 233.433 10.8442 223.422C10.8442 213.411 25.3554 195.35 25.3554 195.35L69.4972 195.334Z" fill="#131517"/>
<path d="M57.1323 215.474C57.1942 215.515 57.2603 215.549 57.3296 215.577L57.9216 215.837L60.2319 216.821L68.9057 220.445L98.8405 232.787L98.7008 232.606C99.079 237.836 99.5229 243.484 99.9094 249.328C100.929 262.994 101.866 275.589 102.606 285.561V285.742H102.795L120.981 284.214L125.988 283.765L127.296 283.639L127.74 283.576C127.589 283.564 127.438 283.564 127.287 283.576L125.98 283.655L120.965 284.009L102.762 285.38L102.968 285.545C102.253 275.581 101.323 262.979 100.37 249.313C99.9422 243.468 99.5476 237.821 99.1365 232.59V232.464L99.0132 232.409L69.0126 220.2L60.2894 216.703L57.9545 215.782L57.3461 215.553C57.2771 215.522 57.2056 215.495 57.1323 215.474Z" fill="#455A64"/>
<path d="M23.958 217.184C24.3598 217.124 24.7539 217.024 25.1337 216.884L28.2744 215.908C31.7021 214.798 35.2152 213.948 38.7816 213.363C42.3496 212.806 45.992 212.851 49.5437 213.497C52.2568 214.041 53.8189 214.781 53.8518 214.695C53.5147 214.476 53.15 214.298 52.7665 214.167C51.7478 213.756 50.6943 213.429 49.6177 213.19C46.0286 212.441 42.3238 212.35 38.6994 212.922C35.1043 213.504 31.5732 214.403 28.151 215.608C26.8356 216.057 25.7832 216.443 25.0515 216.719C24.6743 216.845 24.3085 217 23.958 217.184Z" fill="#455A64"/>
<path d="M29.8525 208.007C31.0682 207.936 32.2873 207.936 33.5029 208.007C34.6293 208.078 35.9694 208.244 37.4493 208.409C38.9292 208.574 40.5653 208.771 42.259 209.078C45.1568 209.52 47.9344 210.508 50.4312 211.985C51.4275 212.649 52.3752 213.378 53.2677 214.167C53.104 213.89 52.8991 213.638 52.6593 213.419C52.0428 212.782 51.3564 212.212 50.6121 211.717C48.1162 210.137 45.296 209.087 42.3412 208.637C40.6311 208.33 38.9867 208.149 37.4986 207.999C36.0105 207.85 34.6622 207.724 33.5194 207.692C32.6188 207.654 31.7166 207.691 30.8227 207.802C30.4907 207.826 30.164 207.895 29.8525 208.007Z" fill="#455A64"/>
<path d="M48.2774 68.0859C43.4842 67.2983 39.2336 69.0705 35.2132 71.662C31.0985 74.4329 27.9628 78.3392 26.2237 82.8605C24.4846 87.3818 24.2248 92.3034 25.4788 96.9697C26.1732 99.3412 27.3616 101.553 28.9724 103.473C30.5832 105.393 32.5831 106.98 34.8515 108.139C41.0917 111.171 49.0749 110.116 54.6655 106.067C60.2562 102.019 63.438 95.3314 63.7093 88.6283C63.9683 83.9796 62.6972 79.3702 60.0754 75.4506C58.7462 73.5142 57.0148 71.8608 54.9892 70.5938C52.9636 69.3267 50.6872 68.473 48.302 68.0859" fill="#131517"/>
<path d="M34.6298 83.7211C35.3369 81.9567 35.0574 79.9954 35.3369 78.1287C35.9535 74.0249 39.4477 70.7325 43.3941 69.1335C47.1102 67.6448 51.6157 67.9677 56.1211 69.354C59.2289 70.2565 62.0038 71.9887 64.1207 74.3479C65.4679 75.9485 66.3949 77.8352 66.8241 79.8498C67.2532 81.8644 67.172 83.9482 66.5872 85.9266L44.6684 82.8704C42.613 84.493 40.5083 86.155 38.0171 87.0608C37.299 87.3626 36.5118 87.4819 35.7315 87.4074C35.3428 87.3631 34.9757 87.2125 34.6739 86.9737C34.3721 86.7348 34.1484 86.4178 34.0297 86.0605C33.8323 85.2649 34.3256 84.4851 34.6298 83.7211Z" fill="#131517"/>
<path d="M56.5892 75.1514L37.4493 79.0424C36.5622 79.0988 35.7289 79.4697 35.1118 80.0828C34.4947 80.6959 34.138 81.5072 34.1113 82.3585L34.3415 122.049C34.3609 124.759 35.3083 127.388 37.0382 129.532L38.8634 131.785C43.0318 136.928 51.4589 136.408 54.6407 130.658C54.8353 130.332 54.9846 129.982 55.0847 129.619C55.1422 129.264 55.2409 129.028 55.2573 128.729L55.6273 124.853C55.8082 121.324 55.841 117.764 55.841 117.764C55.841 117.764 63.6762 116.819 65.707 107.146C66.7018 102.342 66.7676 94.3941 66.6031 87.8958C66.4305 82.075 62.6896 74.7654 56.5892 75.1514Z" fill="#FFBE9D"/>
<path d="M63.6683 95.3786C63.6575 95.7032 63.5148 96.0109 63.2706 96.236C63.0264 96.4612 62.7 96.586 62.361 96.5838C62.1946 96.5912 62.0283 96.5664 61.8721 96.511C61.7158 96.4555 61.5729 96.3705 61.4516 96.261C61.3304 96.1515 61.2335 96.0197 61.1665 95.8735C61.0996 95.7273 61.064 95.5698 61.062 95.4101C61.0747 95.0855 61.2178 94.7781 61.4614 94.5521C61.7049 94.3261 62.0302 94.1989 62.3693 94.1971C62.5361 94.1908 62.7026 94.2166 62.8588 94.2729C63.0151 94.3293 63.158 94.415 63.2791 94.5252C63.4002 94.6353 63.497 94.7676 63.5639 94.9142C63.6307 95.0608 63.6662 95.2187 63.6683 95.3786Z" fill="#131517"/>
<path d="M64.6221 91.9838C64.4494 92.1413 63.4957 91.4088 62.0898 91.3616C60.6839 91.3143 59.6233 91.9444 59.4918 91.7711C59.3602 91.5979 59.5904 91.4088 60.0509 91.1174C60.6743 90.7337 61.4073 90.5464 62.1474 90.5818C62.8743 90.6055 63.5743 90.8511 64.1452 91.2828C64.5645 91.6215 64.7043 91.9208 64.6221 91.9838Z" fill="#131517"/>
<path d="M51.1058 95.0714C51.0972 95.3974 50.9555 95.7071 50.711 95.9339C50.4665 96.1607 50.1389 96.2866 49.7986 96.2844C49.6328 96.2908 49.4674 96.2652 49.3122 96.2092C49.1569 96.1533 49.0149 96.0681 48.8946 95.9587C48.7742 95.8493 48.678 95.7179 48.6116 95.5723C48.5452 95.4266 48.5099 95.2697 48.5078 95.1108C48.5164 94.7862 48.657 94.4777 48.8997 94.2511C49.1424 94.0245 49.4679 93.8977 49.8068 93.8978C49.973 93.8915 50.1388 93.917 50.2945 93.9728C50.4503 94.0287 50.5928 94.1138 50.7138 94.2231C50.8347 94.3324 50.9317 94.4637 50.9991 94.6094C51.0664 94.7551 51.1027 94.9121 51.1058 95.0714Z" fill="#131517"/>
<path d="M51.3115 91.6609C51.1388 91.8185 50.1851 91.0781 48.7792 91.0308C47.3733 90.9835 46.3127 91.6137 46.1812 91.4483C46.0496 91.2829 46.2798 91.0859 46.7485 90.7866C47.3715 90.4088 48.1 90.222 48.8368 90.251C49.5667 90.2791 50.2687 90.5272 50.8428 90.9599C51.2539 91.2907 51.3937 91.59 51.3115 91.6609Z" fill="#131517"/>
<path d="M55.5122 101.869C56.2623 101.684 57.0318 101.581 57.8061 101.562C58.1678 101.562 58.5049 101.483 58.5789 101.255C58.6211 100.902 58.5524 100.546 58.3816 100.231C58.0774 99.3879 57.7568 98.5057 57.4279 97.5763C56.1042 93.8033 55.1669 90.7078 55.3232 90.6605C55.4794 90.6133 56.6879 93.63 58.0034 97.403C58.3158 98.3324 58.62 99.2146 58.9078 100.065C59.119 100.487 59.1656 100.968 59.0393 101.42C58.9814 101.538 58.8967 101.643 58.7915 101.726C58.6863 101.809 58.5631 101.869 58.4309 101.901C58.2308 101.94 58.0268 101.959 57.8225 101.956C57.0518 102.025 56.2749 101.996 55.5122 101.869Z" fill="#131517"/>
<path d="M55.8416 117.804C51.0571 117.699 46.3973 116.322 42.3828 113.826C42.3828 113.826 45.5235 120.686 55.7265 120.127L55.8416 117.804Z" fill="#EB996E"/>
<path d="M54.7887 105.083C54.535 104.751 54.1971 104.488 53.8072 104.317C53.4172 104.146 52.9881 104.073 52.5607 104.106C52.2448 104.122 51.9358 104.2 51.6529 104.336C51.37 104.471 51.1192 104.661 50.9163 104.894C50.7238 105.108 50.6036 105.373 50.5713 105.654C50.539 105.936 50.5962 106.22 50.7355 106.469C50.9513 106.717 51.2393 106.898 51.5627 106.99C51.8862 107.081 52.2307 107.078 52.5524 106.981C53.2251 106.783 53.8488 106.456 54.3859 106.02C54.5501 105.922 54.6926 105.793 54.8052 105.642C54.8568 105.567 54.8843 105.48 54.8843 105.39C54.8843 105.3 54.8568 105.213 54.8052 105.138" fill="#EB996E"/>
<path d="M51.3522 102.649C51.5824 102.649 51.5248 104.098 52.7827 105.185C54.0406 106.272 55.6685 106.17 55.6767 106.374C55.6767 106.461 55.2985 106.642 54.6161 106.634C53.7232 106.612 52.8671 106.289 52.199 105.721C51.5639 105.184 51.1693 104.434 51.0973 103.626C51.0315 102.988 51.2453 102.633 51.3522 102.649Z" fill="#131517"/>
<path d="M51.2291 87.6753C51.0811 88.0376 49.6834 87.8092 48.0309 87.9352C46.3783 88.0612 45.0382 88.4472 44.8327 88.1085C44.7422 87.951 44.9806 87.6123 45.5315 87.2814C46.2618 86.8674 47.085 86.627 47.9322 86.5804C48.7735 86.5118 49.6196 86.6388 50.3987 86.9506C51.0318 87.2027 51.2948 87.502 51.2291 87.6753Z" fill="#131517"/>
<path d="M64.4491 86.0999C64.1943 86.3993 63.2406 86.0448 62.0813 85.9818C60.9221 85.9188 59.9272 86.1078 59.7135 85.7849C59.6148 85.6273 59.7875 85.328 60.2232 85.0523C60.8133 84.7187 61.4974 84.57 62.18 84.627C62.8603 84.6621 63.5124 84.8988 64.0463 85.3044C64.4409 85.6352 64.5642 85.9582 64.4491 86.0999Z" fill="#131517"/>
<path d="M31.119 80.8856C33.1086 75.301 41.8071 67.6921 47.9075 68.2199L57.609 74.0407C57.256 75.6391 56.4582 77.1163 55.3003 78.3157C54.1425 79.5151 52.6675 80.3922 51.0317 80.8541C49.2805 81.3267 47.1922 81.4291 46.0988 82.839C45.0053 84.2489 45.589 86.415 44.5778 87.8958C43.1719 89.9595 39.4639 89.7862 38.3951 92.0232C37.9347 92.9999 38.1403 94.1814 37.6552 95.1739C37.0139 96.4657 33.5444 98.0489 32.122 97.592C30.6997 97.1352 30.749 94.8115 30.3133 93.5828C29.7525 92.2005 29.7118 90.6743 30.1982 89.2664C30.9052 86.5017 30.1735 83.5479 31.119 80.8856Z" fill="#131517"/>
<path d="M36.3311 98.7971C36.3311 98.0725 35.509 96.3317 34.8101 96.1899C32.8287 95.8197 29.2276 95.8434 28.9974 100.695C28.685 107.328 35.6981 106.256 35.7227 106.067C35.7474 105.878 36.2325 101.302 36.3311 98.7971Z" fill="#FFBE9D"/>
<path d="M33.7663 103.468C33.7663 103.468 33.6429 103.539 33.4292 103.618C33.1417 103.728 32.8205 103.728 32.533 103.618C31.8095 103.326 31.2505 102.184 31.2669 100.995C31.2803 100.423 31.4234 99.8616 31.6862 99.3485C31.7622 99.1446 31.8887 98.9614 32.0548 98.8146C32.2209 98.6679 32.4217 98.5618 32.6399 98.5057C32.7792 98.4752 32.9253 98.4934 33.0519 98.5569C33.1785 98.6204 33.2773 98.7252 33.3305 98.8523C33.4127 99.0413 33.3305 99.1752 33.4045 99.1831C33.4785 99.191 33.5525 99.0807 33.5114 98.805C33.4855 98.6393 33.3979 98.4882 33.2647 98.3797C33.1735 98.3049 33.0676 98.2482 32.9533 98.2131C32.8389 98.1779 32.7184 98.1649 32.5988 98.1749C32.3123 98.2181 32.0421 98.3305 31.8134 98.5013C31.5847 98.6722 31.4051 98.8959 31.2916 99.1516C30.9721 99.7127 30.8 100.34 30.79 100.979C30.79 102.318 31.4231 103.602 32.4344 103.925C32.6176 103.984 32.8122 104.003 33.0041 103.981C33.196 103.959 33.3805 103.897 33.5443 103.799C33.7005 103.626 33.7663 103.476 33.7663 103.468Z" fill="#EB996E"/>
<path d="M29.6558 79.2078C29.6558 77.1283 26.9755 75.7735 24.8626 75.2694C22.7068 74.9146 20.4898 75.3204 18.6224 76.4115C17.5124 76.9944 16.3943 77.8293 16.1559 79.0187C15.9175 80.2081 17.1014 81.6259 18.2853 81.2006C17.7067 81.3819 17.1773 81.6841 16.7355 82.0853C16.2937 82.4866 15.9504 82.9768 15.7304 83.5206C15.5104 84.0645 15.4193 84.6483 15.4635 85.23C15.5078 85.8117 15.6863 86.3767 15.9863 86.8842C16.2863 87.3918 16.7001 87.8291 17.198 88.1647C17.6959 88.5003 18.2654 88.7258 18.8653 88.8248C19.4653 88.9239 20.0807 88.894 20.6671 88.7374C21.2535 88.5808 21.7963 88.3014 22.2563 87.9194C21.6557 89.843 20.3846 91.5112 18.6552 92.6454C20.4442 92.8913 22.2692 92.6814 23.9465 92.0366C25.6237 91.3918 27.0941 90.335 28.2094 88.9726C29.3247 87.6102 30.0456 85.9903 30.2995 84.276C30.5535 82.5618 30.3314 80.8137 29.6558 79.2078Z" fill="#131517"/>
<path d="M24.8377 89.7153C24.6319 89.0703 24.5429 88.3963 24.5746 87.7225C24.547 84.4457 25.6706 81.2553 27.7646 78.6643C28.1599 78.1072 28.6554 77.6218 29.228 77.2308C27.7821 78.9995 26.6286 80.9707 25.8079 83.0753C24.5335 86.6198 24.9939 89.7232 24.8377 89.7153Z" fill="#1DA7FF"/>
<path d="M55.5859 72.04C56.219 74.7417 60.5189 78.1996 62.3852 80.3027C65.9698 84.3119 66.6769 85.643 66.644 94.6146C68.3377 91.5191 69.6367 88.4787 69.5051 84.9893C69.4253 81.4547 67.9982 78.0702 65.493 75.4743C64.2394 74.2077 62.6953 73.238 60.9829 72.642C59.2706 72.0459 57.4369 71.8398 55.627 72.04" fill="#131517"/>
<path d="M84.9456 145.829C84.9456 145.829 77.4803 133.911 75.4085 131.501C73.7449 129.638 71.6542 128.169 69.2998 127.208C68.37 126.824 67.3957 126.546 66.3976 126.381L55.6602 124.105C55.6602 124.105 55.6602 131.123 47.973 131.556C40.2858 131.989 33.84 121.742 33.84 121.742C33.84 121.742 21.4336 123.585 18.4738 125.05C15.5141 126.515 10.8442 128.366 8.27905 140.646L6.47852 152.681L27.8547 154.572L29.9019 185.007L40.4995 192.096C40.4995 192.096 69.8918 199.414 71.7417 199.894C73.5915 200.375 74.2081 154.588 74.2081 154.588C74.2081 154.588 81.8213 149.933 84.9456 145.829Z" fill="#131517"/>
<path d="M70.8706 140.709C71.0438 140.987 71.1845 141.283 71.2899 141.591C71.5283 142.166 71.8408 143.009 72.1861 144.064C73.9833 149.595 74.7242 155.39 74.373 161.173C74.3072 162.275 74.2168 163.165 74.1181 163.78C74.0964 164.1 74.0385 164.417 73.9455 164.725C73.9062 164.406 73.9062 164.083 73.9455 163.764C73.9866 163.15 74.0359 162.26 74.0606 161.157C74.1407 158.289 74.0033 155.42 73.6495 152.571C73.2788 149.727 72.6907 146.913 71.8901 144.151C71.5859 143.088 71.3146 142.229 71.1173 141.646C71.0008 141.343 70.9182 141.029 70.8706 140.709Z" fill="#455A64"/>
<path d="M69.9408 190.56L29.655 182.164L27.7969 154.596L9.89844 153.02C9.89844 153.02 10.5644 171.861 11.2468 177.438C12.2416 185.496 17.2074 196.492 20.1179 198.705C23.0283 200.918 71.7085 199.91 71.7085 199.91L69.9408 190.56Z" fill="#FFBE9D"/>
<path d="M92.8056 195.554C92.6716 195.821 92.4576 196.042 92.1909 196.191C91.9242 196.34 91.6171 196.409 91.3092 196.389C91.1779 196.38 91.0482 196.357 90.9228 196.318C90.0267 196.043 90.1006 194.302 90.1006 194.302L85.8418 193.64C85.8418 193.64 80.2923 197.067 78.3191 199.335C76.3459 201.604 71.3143 199.768 71.3143 199.768L69.5713 191.057L77.4229 184.259C77.4229 184.259 76.9461 184.661 77.4887 183.393C78.0313 182.124 80.4896 182.605 80.4896 182.605C80.876 181.975 82.4874 181.754 82.4874 181.754L89.3771 182.542C90.0771 182.62 90.75 182.847 91.3462 183.207C91.9424 183.567 92.4467 184.05 92.822 184.621L95.7407 189.04C95.7407 189.04 97.2781 192.191 97.0315 192.979C96.9217 193.295 96.6913 193.56 96.3865 193.72C96.0816 193.881 95.7247 193.926 95.3871 193.845C95.3871 193.845 95.0501 195.94 94.4745 196.011C93.8867 195.982 93.3097 195.848 92.7727 195.617L92.8056 195.554Z" fill="#FFBE9D"/>
<path d="M78.1631 189.3C78.1631 189.371 79.0839 189.3 80.5556 189.347C82.4667 189.436 84.3561 189.775 86.1709 190.356C87.1699 190.677 88.1405 191.075 89.0732 191.545C89.8953 191.994 90.7668 192.333 91.0381 192.939C91.0994 193.065 91.1248 193.204 91.1118 193.343C91.0988 193.481 91.0479 193.613 90.9641 193.727C90.8394 193.913 90.6589 194.058 90.4462 194.144C90.2509 194.21 90.0445 194.239 89.8378 194.231C89.8378 194.231 90.0515 194.412 90.4955 194.302C90.7635 194.232 90.9985 194.076 91.1614 193.861C91.2799 193.717 91.3573 193.547 91.3861 193.366C91.4149 193.185 91.3942 193 91.3259 192.829C91.1507 192.45 90.8653 192.127 90.5037 191.899C90.1255 191.671 89.7309 191.427 89.2951 191.198C88.3509 190.702 87.3633 190.286 86.3436 189.954C84.4896 189.353 82.5456 189.047 80.5885 189.048C79.7712 189.009 78.9526 189.094 78.1631 189.3Z" fill="#EB996E"/>
<path d="M77.6699 193.506C77.6699 193.632 80.4817 193.506 83.9266 193.711C87.3714 193.916 90.1339 194.31 90.1585 194.184C89.5837 193.967 88.9807 193.827 88.3662 193.766C86.9051 193.529 85.4311 193.371 83.9512 193.294C82.4697 193.215 80.9848 193.215 79.5034 193.294C78.8849 193.283 78.2679 193.355 77.6699 193.506Z" fill="#EB996E"/>
<path d="M92.7647 195.389C92.8253 195.16 92.8557 194.924 92.8551 194.688C92.8971 194.043 92.8971 193.396 92.8551 192.75C92.8318 192.3 92.7685 191.852 92.6661 191.411C92.5421 190.895 92.313 190.408 91.9919 189.978C91.3131 188.981 90.4359 188.121 89.4103 187.449C88.3977 186.777 87.2904 186.247 86.1216 185.874C85.1522 185.612 84.1524 185.466 83.1454 185.441C82.3233 185.441 81.6162 185.441 81.1394 185.441C80.8903 185.425 80.6403 185.449 80.3994 185.512C81.3041 185.636 82.2154 185.709 83.129 185.732C84.1051 185.795 85.0705 185.964 86.0065 186.236C87.1281 186.628 88.192 187.158 89.1719 187.812C90.1417 188.463 90.9778 189.28 91.6384 190.222C92.1791 190.988 92.4892 191.882 92.5345 192.805C92.7154 194.373 92.6743 195.389 92.7647 195.389Z" fill="#EB996E"/>
<path d="M82.8242 183.416C82.8242 183.479 83.8519 183.511 85.4962 183.692C87.1406 183.873 89.607 184.031 91.0623 186.126C92.4625 187.689 93.6301 189.431 94.5318 191.301C94.8303 192.104 95.0505 192.932 95.1895 193.774C95.238 193.543 95.238 193.304 95.1895 193.073C95.1474 192.433 95.0118 191.802 94.7867 191.198C93.9532 189.255 92.7953 187.454 91.3583 185.866C90.9745 185.38 90.5268 184.943 90.0263 184.566C89.5328 184.224 88.9742 183.978 88.382 183.842C87.4278 183.596 86.4498 183.446 85.4634 183.393C84.5858 183.301 83.6999 183.308 82.8242 183.416Z" fill="#EB996E"/>
<path d="M79.8076 197.933C79.9533 197.845 80.0908 197.745 80.2187 197.634L81.3697 196.744C82.818 195.665 84.3306 194.668 85.8998 193.758H85.8011L90.0599 194.452L89.9119 194.278C89.8984 194.614 89.926 194.949 89.9942 195.279C90.0501 195.646 90.219 195.988 90.4792 196.263C90.6353 196.398 90.83 196.486 91.0383 196.515C91.2367 196.55 91.4401 196.55 91.6385 196.515C92.0525 196.457 92.4299 196.255 92.6991 195.948C92.7711 195.876 92.8345 195.797 92.8882 195.712L92.9293 195.641L92.6826 195.728L92.8142 195.775C92.9951 195.846 93.1759 195.909 93.365 195.964C93.5541 196.019 93.7432 196.066 93.9488 196.106C94.0554 196.114 94.1627 196.114 94.2694 196.106C94.405 196.114 94.5406 196.089 94.664 196.035C94.8511 195.894 94.9934 195.705 95.0751 195.491C95.1621 195.311 95.2336 195.124 95.2889 194.932C95.4045 194.552 95.4952 194.165 95.5602 193.774L95.3135 193.94C95.6024 193.997 95.9021 193.979 96.1813 193.888C96.4605 193.797 96.7088 193.635 96.9003 193.42C97.0904 193.197 97.1949 192.919 97.1963 192.632C97.1733 192.366 97.1237 192.102 97.0483 191.844C96.7255 190.841 96.3327 189.859 95.8726 188.906L94.3187 186.543L93.3321 185.055C93.0324 184.534 92.671 184.047 92.2551 183.605C91.8146 183.181 91.2888 182.846 90.7094 182.621C90.1449 182.42 89.5515 182.303 88.95 182.274L82.4632 181.573H82.4138C82.0236 181.633 81.6407 181.731 81.271 181.865C80.8765 181.978 80.5305 182.21 80.2844 182.526L80.5229 182.455C80.1723 182.3 79.7873 182.23 79.4017 182.25C79.0161 182.271 78.6416 182.382 78.3112 182.574C77.7359 182.974 77.3442 183.573 77.2178 184.243L77.2671 184.157L71.8573 188.82L70.4021 190.104C70.2227 190.244 70.06 190.402 69.917 190.576C70.1099 190.455 70.2914 190.318 70.4596 190.167L71.9806 188.946L77.4809 184.393H77.522V184.338C77.6396 183.753 77.9831 183.233 78.4839 182.881C78.7666 182.727 79.0835 182.641 79.4081 182.628C79.7327 182.616 80.0557 182.678 80.3502 182.81L80.4982 182.865L80.5886 182.739C80.8031 182.495 81.0898 182.319 81.4108 182.235C81.7546 182.115 82.1098 182.028 82.4714 181.975H82.4138L88.9007 182.707C89.4629 182.739 90.017 182.851 90.545 183.038C91.0698 183.24 91.5456 183.543 91.9427 183.928C92.3352 184.35 92.6771 184.812 92.9622 185.307L93.9488 186.803C94.4832 187.591 95.0093 188.379 95.5026 189.166C95.9601 190.094 96.3475 191.052 96.6619 192.033C96.7346 192.262 96.7815 192.497 96.8017 192.734C96.8061 192.939 96.7331 193.137 96.5961 193.294C96.4563 193.451 96.2745 193.568 96.0702 193.633C95.8659 193.698 95.647 193.709 95.4369 193.664H95.2149V193.861C95.1522 194.235 95.0671 194.606 94.96 194.971C94.8903 195.296 94.7377 195.599 94.516 195.854C94.4589 195.862 94.4006 195.862 94.3434 195.854H94.0803C93.9076 195.854 93.7268 195.775 93.5459 195.728L93.0197 195.554L92.8964 195.507L92.6415 195.594V195.641C92.6017 195.708 92.5549 195.772 92.5018 195.83C92.2928 196.069 92.001 196.229 91.6796 196.279C91.5251 196.31 91.3654 196.31 91.211 196.279C91.0658 196.266 90.9283 196.211 90.8163 196.121C90.4555 195.622 90.2923 195.016 90.3559 194.412V194.262H90.2079L85.9327 193.624H85.8834H85.8422C84.2782 194.562 82.7812 195.599 81.3615 196.728C80.8682 197.13 80.4982 197.453 80.2515 197.673C80.0942 197.744 79.9454 197.831 79.8076 197.933Z" fill="#EB996E"/>
<path d="M145.021 170.215L92.0161 170.632C90.2895 170.632 88.6534 171.42 88.3903 173.051L82.6352 210.071H55.2901C54.888 210.099 54.5117 210.271 54.237 210.554C53.9623 210.837 53.8096 211.209 53.8096 211.595C53.8096 211.981 53.9623 212.353 54.237 212.636C54.5117 212.919 54.888 213.092 55.2901 213.119H142.505L148.466 174.051C148.54 173.576 148.507 173.091 148.368 172.63C148.229 172.168 147.988 171.741 147.661 171.377C147.334 171.012 146.929 170.72 146.473 170.52C146.018 170.319 145.522 170.215 145.021 170.215Z" fill="#E0E0E0"/>
<path d="M145.021 170.215C145.297 170.204 145.574 170.23 145.843 170.294C146.548 170.454 147.184 170.819 147.664 171.34C148.144 171.86 148.444 172.51 148.523 173.2C148.543 173.901 148.477 174.602 148.326 175.288L147.561 180.447C146.394 188.205 144.717 199.39 142.628 213.143V213.277H142.489L57.88 213.324H55.6026C55.1887 213.362 54.7722 213.285 54.4022 213.103C54.1193 212.955 53.8833 212.736 53.7189 212.47C53.5545 212.204 53.4678 211.9 53.4678 211.591C53.4678 211.282 53.5545 210.978 53.7189 210.712C53.8833 210.446 54.1193 210.228 54.4022 210.079C54.7734 209.901 55.1895 209.827 55.6026 209.866H82.6023L82.3968 210.039C84.4769 196.783 86.4254 184.417 88.1519 173.318C88.2089 172.577 88.5624 171.886 89.1385 171.389C89.7137 170.924 90.4153 170.626 91.161 170.53C91.8713 170.464 92.5853 170.44 93.2987 170.459H95.3787L103.362 170.412L117.544 170.325L137.736 170.223H145.004C145.004 170.223 144.848 170.223 144.536 170.223H143.138L137.736 170.294L117.544 170.506L103.362 170.648L95.3787 170.719H93.2987C92.6045 170.707 91.9101 170.73 91.2186 170.79C90.5357 170.876 89.8933 171.15 89.3687 171.578C89.1129 171.798 88.905 172.064 88.7569 172.362C88.6087 172.659 88.5233 172.981 88.5055 173.31C86.7789 184.409 84.8551 196.775 82.7503 210.032V210.205H55.619C55.2812 210.164 54.9382 210.219 54.6324 210.362C54.3542 210.515 54.1394 210.756 54.0242 211.042C53.9089 211.329 53.9001 211.645 53.9994 211.938C54.1169 212.234 54.3377 212.481 54.6242 212.639C54.9331 212.782 55.2778 212.839 55.619 212.804H57.8964L142.505 212.851L142.341 212.985C144.47 199.241 146.196 188.064 147.397 180.305C147.701 178.375 147.972 176.65 148.219 175.162C148.372 174.486 148.446 173.797 148.441 173.106C148.372 172.431 148.088 171.794 147.628 171.279C147.167 170.765 146.553 170.399 145.868 170.231C145.586 170.212 145.303 170.206 145.021 170.215Z" fill="#131517"/>
<path d="M116.27 194.381C118.105 194.381 119.592 192.956 119.592 191.198C119.592 189.441 118.105 188.016 116.27 188.016C114.436 188.016 112.949 189.441 112.949 191.198C112.949 192.956 114.436 194.381 116.27 194.381Z" fill="white"/>
<path d="M84.7403 212.773C84.8143 212.773 86.4997 203.36 88.5058 191.726C90.5119 180.092 92.0822 170.64 92.0082 170.632C91.9342 170.625 90.2406 180.045 88.2345 191.679C86.2284 203.313 84.6745 212.765 84.7403 212.773Z" fill="#131517"/>
</svg>
